<?xml version="1.0" encoding="UTF-8" standalone="no"?>
<!DOCTYPE svg PUBLIC "-//W3C//DTD SVG 1.1//EN"
 "http://www.w3.org/Graphics/SVG/1.1/DTD/svg11.dtd">
<!-- Generated by graphviz version 2.38.0 (20140413.2041)
 -->
<!-- Title: G Pages: 1 -->
<svg width="427pt" height="2244pt"
 viewBox="0.00 0.00 427.00 2244.00" xmlns="http://www.w3.org/2000/svg" xmlns:xlink="http://www.w3.org/1999/xlink">
<g id="graph0" class="graph" transform="scale(1 1) rotate(0) translate(4 2240)">
<title>G</title>
<polygon fill="white" stroke="none" points="-4,4 -4,-2240 423,-2240 423,4 -4,4"/>
<g id="clust1" class="cluster"><title>cluster_Global</title>
<path fill="none" stroke="gray" d="M20,-8C20,-8 399,-8 399,-8 405,-8 411,-14 411,-20 411,-20 411,-2216 411,-2216 411,-2222 405,-2228 399,-2228 399,-2228 20,-2228 20,-2228 14,-2228 8,-2222 8,-2216 8,-2216 8,-20 8,-20 8,-14 14,-8 20,-8"/>
<text text-anchor="middle" x="209.5" y="-2215.2" font-family="Times New Roman,serif" font-size="11.00" fill="gray">Global</text>
</g>
<g id="clust2" class="cluster"><title>cluster_\EasyTransac</title>
<path fill="none" stroke="gray" d="M28,-16C28,-16 391,-16 391,-16 397,-16 403,-22 403,-28 403,-28 403,-2188 403,-2188 403,-2194 397,-2200 391,-2200 391,-2200 28,-2200 28,-2200 22,-2200 16,-2194 16,-2188 16,-2188 16,-28 16,-28 16,-22 22,-16 28,-16"/>
<text text-anchor="middle" x="209.5" y="-2187.2" font-family="Times New Roman,serif" font-size="11.00" fill="gray">EasyTransac</text>
</g>
<g id="clust3" class="cluster"><title>cluster_\EasyTransac\Entities</title>
<path fill="none" stroke="gray" d="M53,-1182C53,-1182 383,-1182 383,-1182 389,-1182 395,-1188 395,-1194 395,-1194 395,-2160 395,-2160 395,-2166 389,-2172 383,-2172 383,-2172 53,-2172 53,-2172 47,-2172 41,-2166 41,-2160 41,-2160 41,-1194 41,-1194 41,-1188 47,-1182 53,-1182"/>
<text text-anchor="middle" x="218" y="-2159.2" font-family="Times New Roman,serif" font-size="11.00" fill="gray">Entities</text>
</g>
<g id="clust4" class="cluster"><title>cluster_\EasyTransac\Requests</title>
<path fill="none" stroke="gray" d="M53,-562C53,-562 359.5,-562 359.5,-562 365.5,-562 371.5,-568 371.5,-574 371.5,-574 371.5,-1162 371.5,-1162 371.5,-1168 365.5,-1174 359.5,-1174 359.5,-1174 53,-1174 53,-1174 47,-1174 41,-1168 41,-1162 41,-1162 41,-574 41,-574 41,-568 47,-562 53,-562"/>
<text text-anchor="middle" x="206.25" y="-1161.2" font-family="Times New Roman,serif" font-size="11.00" fill="gray">Requests</text>
</g>
<g id="clust6" class="cluster"><title>cluster_\EasyTransac\Responses</title>
<path fill="none" stroke="gray" d="M246,-482C246,-482 363,-482 363,-482 369,-482 375,-488 375,-494 375,-494 375,-542 375,-542 375,-548 369,-554 363,-554 363,-554 246,-554 246,-554 240,-554 234,-548 234,-542 234,-542 234,-494 234,-494 234,-488 240,-482 246,-482"/>
<text text-anchor="middle" x="304.5" y="-541.2" font-family="Times New Roman,serif" font-size="11.00" fill="gray">Responses</text>
</g>
<g id="clust5" class="cluster"><title>cluster_\EasyTransac\Core</title>
<path fill="none" stroke="gray" d="M36,-24C36,-24 373,-24 373,-24 379,-24 385,-30 385,-36 385,-36 385,-462 385,-462 385,-468 379,-474 373,-474 373,-474 36,-474 36,-474 30,-474 24,-468 24,-462 24,-462 24,-36 24,-36 24,-30 30,-24 36,-24"/>
<text text-anchor="middle" x="204.5" y="-461.2" font-family="Times New Roman,serif" font-size="11.00" fill="gray">Core</text>
</g>
<!-- \\EasyTransac\\Entities\\CancellationInfos -->
<g id="node1" class="node"><title>\\EasyTransac\\Entities\\CancellationInfos</title>
<polygon fill="none" stroke="black" points="370,-2144 239,-2144 239,-2108 370,-2108 370,-2144"/>
<text text-anchor="middle" x="304.5" y="-2123.2" font-family="Courier,monospace" font-size="11.00">CancellationInfos</text>
</g>
<!-- \\EasyTransac\\Entities\\Entity -->
<g id="node2" class="node"><title>\\EasyTransac\\Entities\\Entity</title>
<polygon fill="none" stroke="black" points="133,-1685 49,-1685 49,-1649 133,-1649 133,-1685"/>
<text text-anchor="start" x="57" y="-1670.2" font-family="Courier,monospace" font-size="11.00">«abstract»</text>
<text text-anchor="start" x="70.5" y="-1658.2" font-family="Courier,monospace" font-size="11.00">Entity</text>
</g>
<!-- \\EasyTransac\\Entities\\CancellationInfos&#45;&gt;\\EasyTransac\\Entities\\Entity -->
<g id="edge1" class="edge"><title>\\EasyTransac\\Entities\\CancellationInfos&#45;&gt;\\EasyTransac\\Entities\\Entity</title>
<path fill="none" stroke="black" d="M238.6,-2111.22C232.475,-2107.94 226.781,-2103.91 222,-2099 108.785,-1982.62 93.6821,-1771.44 92.0326,-1695.31"/>
<polygon fill="none" stroke="black" points="95.5288,-1695.03 91.8768,-1685.09 88.5296,-1695.14 95.5288,-1695.03"/>
</g>
<!-- \\EasyTransac\\Entities\\DirectTransaction -->
<g id="node3" class="node"><title>\\EasyTransac\\Entities\\DirectTransaction</title>
<polygon fill="none" stroke="black" points="370,-2090 239,-2090 239,-2054 370,-2054 370,-2090"/>
<text text-anchor="middle" x="304.5" y="-2069.2" font-family="Courier,monospace" font-size="11.00">DirectTransaction</text>
</g>
<!-- \\EasyTransac\\Entities\\DirectTransaction&#45;&gt;\\EasyTransac\\Entities\\Entity -->
<g id="edge4" class="edge"><title>\\EasyTransac\\Entities\\DirectTransaction&#45;&gt;\\EasyTransac\\Entities\\Entity</title>
<path fill="none" stroke="black" d="M238.791,-2057.03C232.631,-2053.78 226.876,-2049.82 222,-2045 121.522,-1945.65 98.6389,-1765.23 93.4809,-1695.53"/>
<polygon fill="none" stroke="black" points="96.9578,-1695.07 92.7961,-1685.33 89.9735,-1695.54 96.9578,-1695.07"/>
</g>
<!-- \\EasyTransac\\Entities\\FindUserBy -->
<g id="node4" class="node"><title>\\EasyTransac\\Entities\\FindUserBy</title>
<polygon fill="none" stroke="black" points="346.5,-2036 262.5,-2036 262.5,-2000 346.5,-2000 346.5,-2036"/>
<text text-anchor="middle" x="304.5" y="-2015.2" font-family="Courier,monospace" font-size="11.00">FindUserBy</text>
</g>
<!-- \\EasyTransac\\Entities\\FindUserBy&#45;&gt;\\EasyTransac\\Entities\\Entity -->
<g id="edge7" class="edge"><title>\\EasyTransac\\Entities\\FindUserBy&#45;&gt;\\EasyTransac\\Entities\\Entity</title>
<path fill="none" stroke="black" d="M262.11,-2011.63C247.968,-2007.69 232.968,-2001.31 222,-1991 133.896,-1908.17 104.159,-1757.64 95.3258,-1695.26"/>
<polygon fill="none" stroke="black" points="98.7495,-1694.45 93.9527,-1685.01 91.8115,-1695.38 98.7495,-1694.45"/>
</g>
<!-- \\EasyTransac\\Entities\\CreditCard -->
<g id="node5" class="node"><title>\\EasyTransac\\Entities\\CreditCard</title>
<polygon fill="none" stroke="black" points="346.5,-1982 262.5,-1982 262.5,-1946 346.5,-1946 346.5,-1982"/>
<text text-anchor="middle" x="304.5" y="-1961.2" font-family="Courier,monospace" font-size="11.00">CreditCard</text>
</g>
<!-- \\EasyTransac\\Entities\\CreditCard&#45;&gt;\\EasyTransac\\Entities\\Entity -->
<g id="edge9" class="edge"><title>\\EasyTransac\\Entities\\CreditCard&#45;&gt;\\EasyTransac\\Entities\\Entity</title>
<path fill="none" stroke="black" d="M262.484,-1957.22C248.38,-1953.24 233.308,-1946.94 222,-1937 146.162,-1870.35 110.599,-1749.59 97.8292,-1695.06"/>
<polygon fill="none" stroke="black" points="101.191,-1694.06 95.574,-1685.08 94.3625,-1695.6 101.191,-1694.06"/>
</g>
<!-- \\EasyTransac\\Entities\\OneClickTransaction -->
<g id="node6" class="node"><title>\\EasyTransac\\Entities\\OneClickTransaction</title>
<polygon fill="none" stroke="black" points="377,-1928 232,-1928 232,-1892 377,-1892 377,-1928"/>
<text text-anchor="middle" x="304.5" y="-1907.2" font-family="Courier,monospace" font-size="11.00">OneClickTransaction</text>
</g>
<!-- \\EasyTransac\\Entities\\OneClickTransaction&#45;&gt;\\EasyTransac\\Entities\\Entity -->
<g id="edge10" class="edge"><title>\\EasyTransac\\Entities\\OneClickTransaction&#45;&gt;\\EasyTransac\\Entities\\Entity</title>
<path fill="none" stroke="black" d="M235.667,-1891.88C230.815,-1889.29 226.191,-1886.35 222,-1883 158.12,-1831.93 118.231,-1740.32 101.345,-1694.57"/>
<polygon fill="none" stroke="black" points="104.586,-1693.24 97.9085,-1685.02 97.9995,-1695.61 104.586,-1693.24"/>
</g>
<!-- \\EasyTransac\\Entities\\Client -->
<g id="node7" class="node"><title>\\EasyTransac\\Entities\\Client</title>
<polygon fill="none" stroke="black" points="333,-1874 276,-1874 276,-1838 333,-1838 333,-1874"/>
<text text-anchor="middle" x="304.5" y="-1853.2" font-family="Courier,monospace" font-size="11.00">Client</text>
</g>
<!-- \\EasyTransac\\Entities\\Client&#45;&gt;\\EasyTransac\\Entities\\Entity -->
<g id="edge11" class="edge"><title>\\EasyTransac\\Entities\\Client&#45;&gt;\\EasyTransac\\Entities\\Entity</title>
<path fill="none" stroke="black" d="M275.652,-1850.94C259.001,-1846.95 238.036,-1840.14 222,-1829 169.94,-1792.83 128.078,-1729.95 106.957,-1694.09"/>
<polygon fill="none" stroke="black" points="109.832,-1692.07 101.799,-1685.17 103.772,-1695.57 109.832,-1692.07"/>
</g>
<!-- \\EasyTransac\\Entities\\Cancellation -->
<g id="node8" class="node"><title>\\EasyTransac\\Entities\\Cancellation</title>
<polygon fill="none" stroke="black" points="353.5,-1820 255.5,-1820 255.5,-1784 353.5,-1784 353.5,-1820"/>
<text text-anchor="middle" x="304.5" y="-1799.2" font-family="Courier,monospace" font-size="11.00">Cancellation</text>
</g>
<!-- \\EasyTransac\\Entities\\Cancellation&#45;&gt;\\EasyTransac\\Entities\\Entity -->
<g id="edge12" class="edge"><title>\\EasyTransac\\Entities\\Cancellation&#45;&gt;\\EasyTransac\\Entities\\Entity</title>
<path fill="none" stroke="black" d="M255.26,-1789.32C243.999,-1785.47 232.297,-1780.71 222,-1775 181.31,-1752.42 141.143,-1716.37 116.467,-1692.2"/>
<polygon fill="none" stroke="black" points="118.886,-1689.67 109.323,-1685.11 113.955,-1694.64 118.886,-1689.67"/>
</g>
<!-- \\EasyTransac\\Entities\\PaymentPageTransaction -->
<g id="node9" class="node"><title>\\EasyTransac\\Entities\\PaymentPageTransaction</title>
<polygon fill="none" stroke="black" points="387,-1766 222,-1766 222,-1730 387,-1730 387,-1766"/>
<text text-anchor="middle" x="304.5" y="-1745.2" font-family="Courier,monospace" font-size="11.00">PaymentPageTransaction</text>
</g>
<!-- \\EasyTransac\\Entities\\PaymentPageTransaction&#45;&gt;\\EasyTransac\\Entities\\Entity -->
<g id="edge14" class="edge"><title>\\EasyTransac\\Entities\\PaymentPageTransaction&#45;&gt;\\EasyTransac\\Entities\\Entity</title>
<path fill="none" stroke="black" d="M247.192,-1729.95C238.714,-1727.06 230.101,-1724.02 222,-1721 195.517,-1711.13 166.431,-1699.16 142.498,-1688.99"/>
<polygon fill="none" stroke="black" points="143.83,-1685.76 133.258,-1685.05 141.083,-1692.2 143.83,-1685.76"/>
</g>
<!-- \\EasyTransac\\Entities\\Notification -->
<g id="node10" class="node"><title>\\EasyTransac\\Entities\\Notification</title>
<polygon fill="none" stroke="black" points="353.5,-1712 255.5,-1712 255.5,-1676 353.5,-1676 353.5,-1712"/>
<text text-anchor="middle" x="304.5" y="-1691.2" font-family="Courier,monospace" font-size="11.00">Notification</text>
</g>
<!-- \\EasyTransac\\Entities\\Notification&#45;&gt;\\EasyTransac\\Entities\\Entity -->
<g id="edge15" class="edge"><title>\\EasyTransac\\Entities\\Notification&#45;&gt;\\EasyTransac\\Entities\\Entity</title>
<path fill="none" stroke="black" d="M255.243,-1687.84C221.875,-1683.58 177.536,-1677.92 143.489,-1673.57"/>
<polygon fill="none" stroke="black" points="143.639,-1670.06 133.276,-1672.27 142.753,-1677.01 143.639,-1670.06"/>
</g>
<!-- \\EasyTransac\\Entities\\AddCreditCard -->
<g id="node11" class="node"><title>\\EasyTransac\\Entities\\AddCreditCard</title>
<polygon fill="none" stroke="black" points="356.5,-1658 252.5,-1658 252.5,-1622 356.5,-1622 356.5,-1658"/>
<text text-anchor="middle" x="304.5" y="-1637.2" font-family="Courier,monospace" font-size="11.00">AddCreditCard</text>
</g>
<!-- \\EasyTransac\\Entities\\AddCreditCard&#45;&gt;\\EasyTransac\\Entities\\Entity -->
<g id="edge16" class="edge"><title>\\EasyTransac\\Entities\\AddCreditCard&#45;&gt;\\EasyTransac\\Entities\\Entity</title>
<path fill="none" stroke="black" d="M252.302,-1646.54C219.175,-1650.76 176.213,-1656.25 143.104,-1660.48"/>
<polygon fill="none" stroke="black" points="142.644,-1657.01 133.167,-1661.74 143.53,-1663.95 142.644,-1657.01"/>
</g>
<!-- \\EasyTransac\\Entities\\PaymentPageInfos -->
<g id="node12" class="node"><title>\\EasyTransac\\Entities\\PaymentPageInfos</title>
<polygon fill="none" stroke="black" points="367,-1604 242,-1604 242,-1568 367,-1568 367,-1604"/>
<text text-anchor="middle" x="304.5" y="-1583.2" font-family="Courier,monospace" font-size="11.00">PaymentPageInfos</text>
</g>
<!-- \\EasyTransac\\Entities\\PaymentPageInfos&#45;&gt;\\EasyTransac\\Entities\\Entity -->
<g id="edge20" class="edge"><title>\\EasyTransac\\Entities\\PaymentPageInfos&#45;&gt;\\EasyTransac\\Entities\\Entity</title>
<path fill="none" stroke="black" d="M247.192,-1604.05C238.714,-1606.94 230.101,-1609.98 222,-1613 195.517,-1622.87 166.431,-1634.84 142.498,-1645.01"/>
<polygon fill="none" stroke="black" points="141.083,-1641.8 133.258,-1648.95 143.83,-1648.24 141.083,-1641.8"/>
</g>
<!-- \\EasyTransac\\Entities\\User -->
<g id="node13" class="node"><title>\\EasyTransac\\Entities\\User</title>
<polygon fill="none" stroke="black" points="331.5,-1550 277.5,-1550 277.5,-1514 331.5,-1514 331.5,-1550"/>
<text text-anchor="middle" x="304.5" y="-1529.2" font-family="Courier,monospace" font-size="11.00">User</text>
</g>
<!-- \\EasyTransac\\Entities\\User&#45;&gt;\\EasyTransac\\Entities\\Entity -->
<g id="edge21" class="edge"><title>\\EasyTransac\\Entities\\User&#45;&gt;\\EasyTransac\\Entities\\Entity</title>
<path fill="none" stroke="black" d="M277.142,-1538.05C260.656,-1542.47 239.335,-1549.38 222,-1559 181.31,-1581.58 141.143,-1617.63 116.467,-1641.8"/>
<polygon fill="none" stroke="black" points="113.955,-1639.36 109.323,-1648.89 118.886,-1644.33 113.955,-1639.36"/>
</g>
<!-- \\EasyTransac\\Entities\\Refund -->
<g id="node14" class="node"><title>\\EasyTransac\\Entities\\Refund</title>
<polygon fill="none" stroke="black" points="333,-1496 276,-1496 276,-1460 333,-1460 333,-1496"/>
<text text-anchor="middle" x="304.5" y="-1475.2" font-family="Courier,monospace" font-size="11.00">Refund</text>
</g>
<!-- \\EasyTransac\\Entities\\Refund&#45;&gt;\\EasyTransac\\Entities\\Entity -->
<g id="edge23" class="edge"><title>\\EasyTransac\\Entities\\Refund&#45;&gt;\\EasyTransac\\Entities\\Entity</title>
<path fill="none" stroke="black" d="M275.652,-1483.06C259.001,-1487.05 238.036,-1493.86 222,-1505 169.94,-1541.17 128.078,-1604.05 106.957,-1639.91"/>
<polygon fill="none" stroke="black" points="103.772,-1638.43 101.799,-1648.83 109.832,-1641.93 103.772,-1638.43"/>
</g>
<!-- \\EasyTransac\\Entities\\UserInfos -->
<g id="node15" class="node"><title>\\EasyTransac\\Entities\\UserInfos</title>
<polygon fill="none" stroke="black" points="343,-1442 266,-1442 266,-1406 343,-1406 343,-1442"/>
<text text-anchor="middle" x="304.5" y="-1421.2" font-family="Courier,monospace" font-size="11.00">UserInfos</text>
</g>
<!-- \\EasyTransac\\Entities\\UserInfos&#45;&gt;\\EasyTransac\\Entities\\Entity -->
<g id="edge24" class="edge"><title>\\EasyTransac\\Entities\\UserInfos&#45;&gt;\\EasyTransac\\Entities\\Entity</title>
<path fill="none" stroke="black" d="M265.884,-1430.56C251.043,-1434.57 234.573,-1440.95 222,-1451 158.12,-1502.07 118.231,-1593.68 101.345,-1639.43"/>
<polygon fill="none" stroke="black" points="97.9995,-1638.39 97.9085,-1648.98 104.586,-1640.76 97.9995,-1638.39"/>
</g>
<!-- \\EasyTransac\\Entities\\DoneTransaction -->
<g id="node16" class="node"><title>\\EasyTransac\\Entities\\DoneTransaction</title>
<polygon fill="none" stroke="black" points="363.5,-1388 245.5,-1388 245.5,-1352 363.5,-1352 363.5,-1388"/>
<text text-anchor="middle" x="304.5" y="-1367.2" font-family="Courier,monospace" font-size="11.00">DoneTransaction</text>
</g>
<!-- \\EasyTransac\\Entities\\DoneTransaction&#45;&gt;\\EasyTransac\\Entities\\Entity -->
<g id="edge25" class="edge"><title>\\EasyTransac\\Entities\\DoneTransaction&#45;&gt;\\EasyTransac\\Entities\\Entity</title>
<path fill="none" stroke="black" d="M245.146,-1382.86C236.764,-1386.48 228.718,-1391.1 222,-1397 146.162,-1463.65 110.599,-1584.41 97.8292,-1638.94"/>
<polygon fill="none" stroke="black" points="94.3625,-1638.4 95.574,-1648.92 101.191,-1639.94 94.3625,-1638.4"/>
</g>
<!-- \\EasyTransac\\Entities\\PaymentStatus -->
<g id="node17" class="node"><title>\\EasyTransac\\Entities\\PaymentStatus</title>
<polygon fill="none" stroke="black" points="356.5,-1334 252.5,-1334 252.5,-1298 356.5,-1298 356.5,-1334"/>
<text text-anchor="middle" x="304.5" y="-1313.2" font-family="Courier,monospace" font-size="11.00">PaymentStatus</text>
</g>
<!-- \\EasyTransac\\Entities\\PaymentStatus&#45;&gt;\\EasyTransac\\Entities\\Entity -->
<g id="edge30" class="edge"><title>\\EasyTransac\\Entities\\PaymentStatus&#45;&gt;\\EasyTransac\\Entities\\Entity</title>
<path fill="none" stroke="black" d="M252.373,-1325.46C241.345,-1329.42 230.471,-1335.04 222,-1343 133.896,-1425.83 104.159,-1576.36 95.3258,-1638.74"/>
<polygon fill="none" stroke="black" points="91.8115,-1638.62 93.9527,-1648.99 98.7495,-1639.55 91.8115,-1638.62"/>
</g>
<!-- \\EasyTransac\\Entities\\CreditCardsList -->
<g id="node18" class="node"><title>\\EasyTransac\\Entities\\CreditCardsList</title>
<polygon fill="none" stroke="black" points="363.5,-1280 245.5,-1280 245.5,-1244 363.5,-1244 363.5,-1280"/>
<text text-anchor="middle" x="304.5" y="-1259.2" font-family="Courier,monospace" font-size="11.00">CreditCardsList</text>
</g>
<!-- \\EasyTransac\\Entities\\CreditCardsList&#45;&gt;\\EasyTransac\\Entities\\Entity -->
<g id="edge31" class="edge"><title>\\EasyTransac\\Entities\\CreditCardsList&#45;&gt;\\EasyTransac\\Entities\\Entity</title>
<path fill="none" stroke="black" d="M245.347,-1273.82C236.74,-1277.57 228.572,-1282.5 222,-1289 121.522,-1388.35 98.6389,-1568.77 93.4809,-1638.47"/>
<polygon fill="none" stroke="black" points="89.9735,-1638.46 92.7961,-1648.67 96.9578,-1638.93 89.9735,-1638.46"/>
</g>
<!-- \\EasyTransac\\Entities\\Customer -->
<g id="node19" class="node"><title>\\EasyTransac\\Entities\\Customer</title>
<polygon fill="none" stroke="black" points="340,-1226 269,-1226 269,-1190 340,-1190 340,-1226"/>
<text text-anchor="middle" x="304.5" y="-1205.2" font-family="Courier,monospace" font-size="11.00">Customer</text>
</g>
<!-- \\EasyTransac\\Entities\\Customer&#45;&gt;\\EasyTransac\\Entities\\Entity -->
<g id="edge32" class="edge"><title>\\EasyTransac\\Entities\\Customer&#45;&gt;\\EasyTransac\\Entities\\Entity</title>
<path fill="none" stroke="black" d="M268.676,-1212.09C252.538,-1215.67 234.264,-1222.39 222,-1235 108.785,-1351.38 93.6821,-1562.56 92.0326,-1638.69"/>
<polygon fill="none" stroke="black" points="88.5296,-1638.86 91.8768,-1648.91 95.5288,-1638.97 88.5296,-1638.86"/>
</g>
<!-- \\EasyTransac\\Requests\\FindUser -->
<g id="node20" class="node"><title>\\EasyTransac\\Requests\\FindUser</title>
<polygon fill="none" stroke="black" points="340,-1146 269,-1146 269,-1110 340,-1110 340,-1146"/>
<text text-anchor="middle" x="304.5" y="-1125.2" font-family="Courier,monospace" font-size="11.00">FindUser</text>
</g>
<!-- \\EasyTransac\\Requests\\Request -->
<g id="node24" class="node"><title>\\EasyTransac\\Requests\\Request</title>
<polygon fill="none" stroke="black" points="133,-876 49,-876 49,-840 133,-840 133,-876"/>
<text text-anchor="start" x="57" y="-861.2" font-family="Courier,monospace" font-size="11.00">«abstract»</text>
<text text-anchor="start" x="67" y="-849.2" font-family="Courier,monospace" font-size="11.00">Request</text>
</g>
<!-- \\EasyTransac\\Requests\\FindUser&#45;&gt;\\EasyTransac\\Requests\\Request -->
<g id="edge2" class="edge"><title>\\EasyTransac\\Requests\\FindUser&#45;&gt;\\EasyTransac\\Requests\\Request</title>
<path fill="none" stroke="black" d="M268.904,-1122.6C253.201,-1118.72 235.227,-1112.14 222,-1101 152.29,-1042.32 114.351,-936.455 99.4932,-886.092"/>
<polygon fill="none" stroke="black" points="102.786,-884.876 96.6699,-876.225 96.0558,-886.802 102.786,-884.876"/>
</g>
<!-- \\EasyTransac\\Requests\\PaymentRefund -->
<g id="node21" class="node"><title>\\EasyTransac\\Requests\\PaymentRefund</title>
<polygon fill="none" stroke="black" points="356.5,-1092 252.5,-1092 252.5,-1056 356.5,-1056 356.5,-1092"/>
<text text-anchor="middle" x="304.5" y="-1071.2" font-family="Courier,monospace" font-size="11.00">PaymentRefund</text>
</g>
<!-- \\EasyTransac\\Requests\\PaymentRefund&#45;&gt;\\EasyTransac\\Requests\\Request -->
<g id="edge3" class="edge"><title>\\EasyTransac\\Requests\\PaymentRefund&#45;&gt;\\EasyTransac\\Requests\\Request</title>
<path fill="none" stroke="black" d="M252.293,-1062.66C241.636,-1058.81 230.939,-1053.71 222,-1047 164.067,-1003.5 122.824,-926.382 103.805,-885.394"/>
<polygon fill="none" stroke="black" points="106.983,-883.927 99.6621,-876.268 100.609,-886.82 106.983,-883.927"/>
</g>
<!-- \\EasyTransac\\Requests\\AddUser -->
<g id="node22" class="node"><title>\\EasyTransac\\Requests\\AddUser</title>
<polygon fill="none" stroke="black" points="336.5,-1038 272.5,-1038 272.5,-1002 336.5,-1002 336.5,-1038"/>
<text text-anchor="middle" x="304.5" y="-1017.2" font-family="Courier,monospace" font-size="11.00">AddUser</text>
</g>
<!-- \\EasyTransac\\Requests\\AddUser&#45;&gt;\\EasyTransac\\Requests\\Request -->
<g id="edge5" class="edge"><title>\\EasyTransac\\Requests\\AddUser&#45;&gt;\\EasyTransac\\Requests\\Request</title>
<path fill="none" stroke="black" d="M272.142,-1013.41C256.303,-1009.17 237.261,-1002.61 222,-993 175.695,-963.835 134.122,-914.722 111.05,-884.461"/>
<polygon fill="none" stroke="black" points="113.846,-882.355 105.044,-876.458 108.247,-886.557 113.846,-882.355"/>
</g>
<!-- \\EasyTransac\\Requests\\CreditCardsList -->
<g id="node23" class="node"><title>\\EasyTransac\\Requests\\CreditCardsList</title>
<polygon fill="none" stroke="black" points="363.5,-984 245.5,-984 245.5,-948 363.5,-948 363.5,-984"/>
<text text-anchor="middle" x="304.5" y="-963.2" font-family="Courier,monospace" font-size="11.00">CreditCardsList</text>
</g>
<!-- \\EasyTransac\\Requests\\CreditCardsList&#45;&gt;\\EasyTransac\\Requests\\Request -->
<g id="edge8" class="edge"><title>\\EasyTransac\\Requests\\CreditCardsList&#45;&gt;\\EasyTransac\\Requests\\Request</title>
<path fill="none" stroke="black" d="M245.396,-948.641C237.417,-945.713 229.422,-942.481 222,-939 187.542,-922.838 150.979,-899.43 125.436,-881.929"/>
<polygon fill="none" stroke="black" points="127.096,-878.822 116.882,-876.007 123.111,-884.577 127.096,-878.822"/>
</g>
<!-- \\EasyTransac\\Requests\\AddCreditCard -->
<g id="node25" class="node"><title>\\EasyTransac\\Requests\\AddCreditCard</title>
<polygon fill="none" stroke="black" points="356.5,-930 252.5,-930 252.5,-894 356.5,-894 356.5,-930"/>
<text text-anchor="middle" x="304.5" y="-909.2" font-family="Courier,monospace" font-size="11.00">AddCreditCard</text>
</g>
<!-- \\EasyTransac\\Requests\\AddCreditCard&#45;&gt;\\EasyTransac\\Requests\\Request -->
<g id="edge17" class="edge"><title>\\EasyTransac\\Requests\\AddCreditCard&#45;&gt;\\EasyTransac\\Requests\\Request</title>
<path fill="none" stroke="black" d="M252.302,-898.928C219.175,-890.47 176.213,-879.501 143.104,-871.048"/>
<polygon fill="none" stroke="black" points="143.723,-867.594 133.167,-868.511 141.991,-874.376 143.723,-867.594"/>
</g>
<!-- \\EasyTransac\\Requests\\DirectPayment -->
<g id="node26" class="node"><title>\\EasyTransac\\Requests\\DirectPayment</title>
<polygon fill="none" stroke="black" points="356.5,-876 252.5,-876 252.5,-840 356.5,-840 356.5,-876"/>
<text text-anchor="middle" x="304.5" y="-855.2" font-family="Courier,monospace" font-size="11.00">DirectPayment</text>
</g>
<!-- \\EasyTransac\\Requests\\DirectPayment&#45;&gt;\\EasyTransac\\Requests\\Request -->
<g id="edge18" class="edge"><title>\\EasyTransac\\Requests\\DirectPayment&#45;&gt;\\EasyTransac\\Requests\\Request</title>
<path fill="none" stroke="black" d="M252.302,-858C219.318,-858 176.583,-858 143.533,-858"/>
<polygon fill="none" stroke="black" points="143.168,-854.5 133.167,-858 143.167,-861.5 143.168,-854.5"/>
</g>
<!-- \\EasyTransac\\Requests\\PaymentStatus -->
<g id="node27" class="node"><title>\\EasyTransac\\Requests\\PaymentStatus</title>
<polygon fill="none" stroke="black" points="356.5,-822 252.5,-822 252.5,-786 356.5,-786 356.5,-822"/>
<text text-anchor="middle" x="304.5" y="-801.2" font-family="Courier,monospace" font-size="11.00">PaymentStatus</text>
</g>
<!-- \\EasyTransac\\Requests\\PaymentStatus&#45;&gt;\\EasyTransac\\Requests\\Request -->
<g id="edge19" class="edge"><title>\\EasyTransac\\Requests\\PaymentStatus&#45;&gt;\\EasyTransac\\Requests\\Request</title>
<path fill="none" stroke="black" d="M252.302,-817.072C219.175,-825.53 176.213,-836.499 143.104,-844.952"/>
<polygon fill="none" stroke="black" points="141.991,-841.624 133.167,-847.489 143.723,-848.406 141.991,-841.624"/>
</g>
<!-- \\EasyTransac\\Requests\\UpdateUser -->
<g id="node28" class="node"><title>\\EasyTransac\\Requests\\UpdateUser</title>
<polygon fill="none" stroke="black" points="346.5,-768 262.5,-768 262.5,-732 346.5,-732 346.5,-768"/>
<text text-anchor="middle" x="304.5" y="-747.2" font-family="Courier,monospace" font-size="11.00">UpdateUser</text>
</g>
<!-- \\EasyTransac\\Requests\\UpdateUser&#45;&gt;\\EasyTransac\\Requests\\Request -->
<g id="edge22" class="edge"><title>\\EasyTransac\\Requests\\UpdateUser&#45;&gt;\\EasyTransac\\Requests\\Request</title>
<path fill="none" stroke="black" d="M262.135,-761.605C249.043,-765.83 234.685,-771.05 222,-777 187.542,-793.162 150.979,-816.57 125.436,-834.071"/>
<polygon fill="none" stroke="black" points="123.111,-831.423 116.882,-839.993 127.096,-837.178 123.111,-831.423"/>
</g>
<!-- \\EasyTransac\\Requests\\PaymentPage -->
<g id="node29" class="node"><title>\\EasyTransac\\Requests\\PaymentPage</title>
<polygon fill="none" stroke="black" points="350,-714 259,-714 259,-678 350,-678 350,-714"/>
<text text-anchor="middle" x="304.5" y="-693.2" font-family="Courier,monospace" font-size="11.00">PaymentPage</text>
</g>
<!-- \\EasyTransac\\Requests\\PaymentPage&#45;&gt;\\EasyTransac\\Requests\\Request -->
<g id="edge26" class="edge"><title>\\EasyTransac\\Requests\\PaymentPage&#45;&gt;\\EasyTransac\\Requests\\Request</title>
<path fill="none" stroke="black" d="M258.61,-706.59C246.198,-710.634 233.099,-716.009 222,-723 175.695,-752.165 134.122,-801.278 111.05,-831.539"/>
<polygon fill="none" stroke="black" points="108.247,-829.443 105.044,-839.542 113.846,-833.645 108.247,-829.443"/>
</g>
<!-- \\EasyTransac\\Requests\\OneClickPayment -->
<g id="node30" class="node"><title>\\EasyTransac\\Requests\\OneClickPayment</title>
<polygon fill="none" stroke="black" points="363.5,-660 245.5,-660 245.5,-624 363.5,-624 363.5,-660"/>
<text text-anchor="middle" x="304.5" y="-639.2" font-family="Courier,monospace" font-size="11.00">OneClickPayment</text>
</g>
<!-- \\EasyTransac\\Requests\\OneClickPayment&#45;&gt;\\EasyTransac\\Requests\\Request -->
<g id="edge27" class="edge"><title>\\EasyTransac\\Requests\\OneClickPayment&#45;&gt;\\EasyTransac\\Requests\\Request</title>
<path fill="none" stroke="black" d="M245.485,-655.977C237.152,-659.438 229.032,-663.719 222,-669 164.067,-712.503 122.824,-789.618 103.805,-830.606"/>
<polygon fill="none" stroke="black" points="100.609,-829.18 99.6621,-839.732 106.983,-832.073 100.609,-829.18"/>
</g>
<!-- \\EasyTransac\\Requests\\Cancellation -->
<g id="node31" class="node"><title>\\EasyTransac\\Requests\\Cancellation</title>
<polygon fill="none" stroke="black" points="353.5,-606 255.5,-606 255.5,-570 353.5,-570 353.5,-606"/>
<text text-anchor="middle" x="304.5" y="-585.2" font-family="Courier,monospace" font-size="11.00">Cancellation</text>
</g>
<!-- \\EasyTransac\\Requests\\Cancellation&#45;&gt;\\EasyTransac\\Requests\\Request -->
<g id="edge28" class="edge"><title>\\EasyTransac\\Requests\\Cancellation&#45;&gt;\\EasyTransac\\Requests\\Request</title>
<path fill="none" stroke="black" d="M255.113,-597.41C243.359,-601.393 231.464,-607.033 222,-615 152.29,-673.684 114.351,-779.545 99.4932,-829.908"/>
<polygon fill="none" stroke="black" points="96.0558,-829.198 96.6699,-839.775 102.786,-831.124 96.0558,-829.198"/>
</g>
<!-- \\EasyTransac\\Core\\FgcCaller -->
<g id="node32" class="node"><title>\\EasyTransac\\Core\\FgcCaller</title>
<polygon fill="none" stroke="black" points="343,-68 266,-68 266,-32 343,-32 343,-68"/>
<text text-anchor="middle" x="304.5" y="-47.2" font-family="Courier,monospace" font-size="11.00">FgcCaller</text>
</g>
<!-- \\EasyTransac\\Core\\ICaller -->
<g id="node41" class="node"><title>\\EasyTransac\\Core\\ICaller</title>
<polygon fill="none" stroke="black" points="123,-176 59,-176 59,-140 123,-140 123,-176"/>
<text text-anchor="middle" x="91" y="-155.2" font-family="Courier,monospace" font-size="11.00">ICaller</text>
</g>
<!-- \\EasyTransac\\Core\\FgcCaller&#45;&gt;\\EasyTransac\\Core\\ICaller -->
<g id="edge6" class="edge"><title>\\EasyTransac\\Core\\FgcCaller&#45;&gt;\\EasyTransac\\Core\\ICaller</title>
<path fill="none" stroke="black" stroke-dasharray="1,5" d="M265.858,-60.4188C251.808,-64.8366 235.9,-70.4807 222,-77 187.542,-93.1616 150.979,-116.57 125.436,-134.071"/>
<polygon fill="none" stroke="black" points="123.111,-131.423 116.882,-139.993 127.096,-137.178 123.111,-131.423"/>
</g>
<!-- \\EasyTransac\\Core\\PaymentNotification -->
<g id="node33" class="node"><title>\\EasyTransac\\Core\\PaymentNotification</title>
<polygon fill="none" stroke="black" points="377,-392 232,-392 232,-356 377,-356 377,-392"/>
<text text-anchor="middle" x="304.5" y="-371.2" font-family="Courier,monospace" font-size="11.00">PaymentNotification</text>
</g>
<!-- \\EasyTransac\\Core\\Logger -->
<g id="node34" class="node"><title>\\EasyTransac\\Core\\Logger</title>
<polygon fill="none" stroke="black" points="333,-338 276,-338 276,-302 333,-302 333,-338"/>
<text text-anchor="middle" x="304.5" y="-317.2" font-family="Courier,monospace" font-size="11.00">Logger</text>
</g>
<!-- \\EasyTransac\\Core\\LimitedModifier -->
<g id="node35" class="node"><title>\\EasyTransac\\Core\\LimitedModifier</title>
<polygon fill="none" stroke="black" points="363.5,-446 245.5,-446 245.5,-410 363.5,-410 363.5,-446"/>
<text text-anchor="middle" x="304.5" y="-425.2" font-family="Courier,monospace" font-size="11.00">LimitedModifier</text>
</g>
<!-- \\EasyTransac\\Core\\ICallerModifier -->
<g id="node40" class="node"><title>\\EasyTransac\\Core\\ICallerModifier</title>
<polygon fill="none" stroke="black" points="150,-446 32,-446 32,-410 150,-410 150,-446"/>
<text text-anchor="middle" x="91" y="-425.2" font-family="Courier,monospace" font-size="11.00">ICallerModifier</text>
</g>
<!-- \\EasyTransac\\Core\\LimitedModifier&#45;&gt;\\EasyTransac\\Core\\ICallerModifier -->
<g id="edge13" class="edge"><title>\\EasyTransac\\Core\\LimitedModifier&#45;&gt;\\EasyTransac\\Core\\ICallerModifier</title>
<path fill="none" stroke="black" stroke-dasharray="1,5" d="M245.427,-428C219.185,-428 187.99,-428 160.602,-428"/>
<polygon fill="none" stroke="black" points="160.311,-424.5 150.31,-428 160.31,-431.5 160.311,-424.5"/>
</g>
<!-- \\EasyTransac\\Core\\Services -->
<g id="node36" class="node"><title>\\EasyTransac\\Core\\Services</title>
<polygon fill="none" stroke="black" points="340,-230 269,-230 269,-194 340,-194 340,-230"/>
<text text-anchor="middle" x="304.5" y="-209.2" font-family="Courier,monospace" font-size="11.00">Services</text>
</g>
<!-- \\EasyTransac\\Core\\Security -->
<g id="node37" class="node"><title>\\EasyTransac\\Core\\Security</title>
<polygon fill="none" stroke="black" points="340,-176 269,-176 269,-140 340,-140 340,-176"/>
<text text-anchor="middle" x="304.5" y="-155.2" font-family="Courier,monospace" font-size="11.00">Security</text>
</g>
<!-- \\EasyTransac\\Core\\CommentParser -->
<g id="node38" class="node"><title>\\EasyTransac\\Core\\CommentParser</title>
<polygon fill="none" stroke="black" points="356.5,-122 252.5,-122 252.5,-86 356.5,-86 356.5,-122"/>
<text text-anchor="middle" x="304.5" y="-101.2" font-family="Courier,monospace" font-size="11.00">CommentParser</text>
</g>
<!-- \\EasyTransac\\Core\\CurlCaller -->
<g id="node39" class="node"><title>\\EasyTransac\\Core\\CurlCaller</title>
<polygon fill="none" stroke="black" points="346.5,-284 262.5,-284 262.5,-248 346.5,-248 346.5,-284"/>
<text text-anchor="middle" x="304.5" y="-263.2" font-family="Courier,monospace" font-size="11.00">CurlCaller</text>
</g>
<!-- \\EasyTransac\\Core\\CurlCaller&#45;&gt;\\EasyTransac\\Core\\ICaller -->
<g id="edge29" class="edge"><title>\\EasyTransac\\Core\\CurlCaller&#45;&gt;\\EasyTransac\\Core\\ICaller</title>
<path fill="none" stroke="black" stroke-dasharray="1,5" d="M262.135,-254.395C249.043,-250.17 234.685,-244.95 222,-239 187.542,-222.838 150.979,-199.43 125.436,-181.929"/>
<polygon fill="none" stroke="black" points="127.096,-178.822 116.882,-176.007 123.111,-184.577 127.096,-178.822"/>
</g>
<!-- \\EasyTransac\\Responses\\StandardResponse -->
<g id="node42" class="node"><title>\\EasyTransac\\Responses\\StandardResponse</title>
<polygon fill="none" stroke="black" points="367,-526 242,-526 242,-490 367,-490 367,-526"/>
<text text-anchor="middle" x="304.5" y="-505.2" font-family="Courier,monospace" font-size="11.00">StandardResponse</text>
</g>
</g>
</svg>
