<?xml version="1.0" encoding="UTF-8" standalone="no"?>
<!DOCTYPE svg PUBLIC "-//W3C//DTD SVG 1.1//EN"
 "http://www.w3.org/Graphics/SVG/1.1/DTD/svg11.dtd">
<!-- Generated by graphviz version 2.38.0 (20140413.2041)
 -->
<!-- Title: G Pages: 1 -->
<svg width="393pt" height="1866pt"
 viewBox="0.00 0.00 393.00 1866.00" xmlns="http://www.w3.org/2000/svg" xmlns:xlink="http://www.w3.org/1999/xlink">
<g id="graph0" class="graph" transform="scale(1 1) rotate(0) translate(4 1862)">
<title>G</title>
<polygon fill="white" stroke="none" points="-4,4 -4,-1862 389,-1862 389,4 -4,4"/>
<g id="clust1" class="cluster"><title>cluster_Global</title>
<path fill="none" stroke="gray" d="M20,-8C20,-8 365,-8 365,-8 371,-8 377,-14 377,-20 377,-20 377,-1838 377,-1838 377,-1844 371,-1850 365,-1850 365,-1850 20,-1850 20,-1850 14,-1850 8,-1844 8,-1838 8,-1838 8,-20 8,-20 8,-14 14,-8 20,-8"/>
<text text-anchor="middle" x="192.5" y="-1837.2" font-family="Times New Roman,serif" font-size="11.00" fill="gray">Global</text>
</g>
<g id="clust2" class="cluster"><title>cluster_\EasyTransac</title>
<path fill="none" stroke="gray" d="M28,-16C28,-16 357,-16 357,-16 363,-16 369,-22 369,-28 369,-28 369,-1810 369,-1810 369,-1816 363,-1822 357,-1822 357,-1822 28,-1822 28,-1822 22,-1822 16,-1816 16,-1810 16,-1810 16,-28 16,-28 16,-22 22,-16 28,-16"/>
<text text-anchor="middle" x="192.5" y="-1809.2" font-family="Times New Roman,serif" font-size="11.00" fill="gray">EasyTransac</text>
</g>
<g id="clust3" class="cluster"><title>cluster_\EasyTransac\Entities</title>
<path fill="none" stroke="gray" d="M36,-912C36,-912 349,-912 349,-912 355,-912 361,-918 361,-924 361,-924 361,-1782 361,-1782 361,-1788 355,-1794 349,-1794 349,-1794 36,-1794 36,-1794 30,-1794 24,-1788 24,-1782 24,-1782 24,-924 24,-924 24,-918 30,-912 36,-912"/>
<text text-anchor="middle" x="192.5" y="-1781.2" font-family="Times New Roman,serif" font-size="11.00" fill="gray">Entities</text>
</g>
<g id="clust4" class="cluster"><title>cluster_\EasyTransac\Requests</title>
<path fill="none" stroke="gray" d="M36,-292C36,-292 325.5,-292 325.5,-292 331.5,-292 337.5,-298 337.5,-304 337.5,-304 337.5,-892 337.5,-892 337.5,-898 331.5,-904 325.5,-904 325.5,-904 36,-904 36,-904 30,-904 24,-898 24,-892 24,-892 24,-304 24,-304 24,-298 30,-292 36,-292"/>
<text text-anchor="middle" x="180.75" y="-891.2" font-family="Times New Roman,serif" font-size="11.00" fill="gray">Requests</text>
</g>
<g id="clust6" class="cluster"><title>cluster_\EasyTransac\Responses</title>
<path fill="none" stroke="gray" d="M212,-212C212,-212 329,-212 329,-212 335,-212 341,-218 341,-224 341,-224 341,-272 341,-272 341,-278 335,-284 329,-284 329,-284 212,-284 212,-284 206,-284 200,-278 200,-272 200,-272 200,-224 200,-224 200,-218 206,-212 212,-212"/>
<text text-anchor="middle" x="270.5" y="-271.2" font-family="Times New Roman,serif" font-size="11.00" fill="gray">Responses</text>
</g>
<g id="clust5" class="cluster"><title>cluster_\EasyTransac\Core</title>
<path fill="none" stroke="gray" d="M222.5,-24C222.5,-24 318.5,-24 318.5,-24 324.5,-24 330.5,-30 330.5,-36 330.5,-36 330.5,-192 330.5,-192 330.5,-198 324.5,-204 318.5,-204 318.5,-204 222.5,-204 222.5,-204 216.5,-204 210.5,-198 210.5,-192 210.5,-192 210.5,-36 210.5,-36 210.5,-30 216.5,-24 222.5,-24"/>
<text text-anchor="middle" x="270.5" y="-191.2" font-family="Times New Roman,serif" font-size="11.00" fill="gray">Core</text>
</g>
<!-- \\EasyTransac\\Entities\\CancellationInfos -->
<g id="node1" class="node"><title>\\EasyTransac\\Entities\\CancellationInfos</title>
<polygon fill="none" stroke="black" points="336,-1766 205,-1766 205,-1730 336,-1730 336,-1766"/>
<text text-anchor="middle" x="270.5" y="-1745.2" font-family="Courier,monospace" font-size="11.00">CancellationInfos</text>
</g>
<!-- \\EasyTransac\\Entities\\Entity -->
<g id="node2" class="node"><title>\\EasyTransac\\Entities\\Entity</title>
<polygon fill="none" stroke="black" points="116,-1361 32,-1361 32,-1325 116,-1325 116,-1361"/>
<text text-anchor="start" x="40" y="-1346.2" font-family="Courier,monospace" font-size="11.00">«abstract»</text>
<text text-anchor="start" x="53.5" y="-1334.2" font-family="Courier,monospace" font-size="11.00">Entity</text>
</g>
<!-- \\EasyTransac\\Entities\\CancellationInfos&#45;&gt;\\EasyTransac\\Entities\\Entity -->
<g id="edge1" class="edge"><title>\\EasyTransac\\Entities\\CancellationInfos&#45;&gt;\\EasyTransac\\Entities\\Entity</title>
<path fill="none" stroke="black" d="M204.991,-1733.45C198.716,-1730.12 192.88,-1726.03 188,-1721 90.8482,-1620.95 76.7539,-1440.94 75.0541,-1371.44"/>
<polygon fill="none" stroke="black" points="78.5506,-1371.21 74.8769,-1361.27 71.5517,-1371.33 78.5506,-1371.21"/>
</g>
<!-- \\EasyTransac\\Entities\\DirectTransaction -->
<g id="node3" class="node"><title>\\EasyTransac\\Entities\\DirectTransaction</title>
<polygon fill="none" stroke="black" points="336,-1712 205,-1712 205,-1676 336,-1676 336,-1712"/>
<text text-anchor="middle" x="270.5" y="-1691.2" font-family="Courier,monospace" font-size="11.00">DirectTransaction</text>
</g>
<!-- \\EasyTransac\\Entities\\DirectTransaction&#45;&gt;\\EasyTransac\\Entities\\Entity -->
<g id="edge4" class="edge"><title>\\EasyTransac\\Entities\\DirectTransaction&#45;&gt;\\EasyTransac\\Entities\\Entity</title>
<path fill="none" stroke="black" d="M204.812,-1679.01C198.648,-1675.76 192.886,-1671.81 188,-1667 103.498,-1583.81 82.087,-1434.11 76.7429,-1371.62"/>
<polygon fill="none" stroke="black" points="80.2084,-1371.04 75.9438,-1361.34 73.2294,-1371.58 80.2084,-1371.04"/>
</g>
<!-- \\EasyTransac\\Entities\\FindUserBy -->
<g id="node4" class="node"><title>\\EasyTransac\\Entities\\FindUserBy</title>
<polygon fill="none" stroke="black" points="312.5,-1658 228.5,-1658 228.5,-1622 312.5,-1622 312.5,-1658"/>
<text text-anchor="middle" x="270.5" y="-1637.2" font-family="Courier,monospace" font-size="11.00">FindUserBy</text>
</g>
<!-- \\EasyTransac\\Entities\\FindUserBy&#45;&gt;\\EasyTransac\\Entities\\Entity -->
<g id="edge6" class="edge"><title>\\EasyTransac\\Entities\\FindUserBy&#45;&gt;\\EasyTransac\\Entities\\Entity</title>
<path fill="none" stroke="black" d="M228.194,-1633.54C214.06,-1629.59 199.044,-1623.23 188,-1613 115.656,-1545.99 88.0585,-1425.42 78.9389,-1371"/>
<polygon fill="none" stroke="black" points="82.3812,-1370.36 77.3536,-1361.03 75.4681,-1371.46 82.3812,-1370.36"/>
</g>
<!-- \\EasyTransac\\Entities\\CreditCard -->
<g id="node5" class="node"><title>\\EasyTransac\\Entities\\CreditCard</title>
<polygon fill="none" stroke="black" points="312.5,-1604 228.5,-1604 228.5,-1568 312.5,-1568 312.5,-1604"/>
<text text-anchor="middle" x="270.5" y="-1583.2" font-family="Courier,monospace" font-size="11.00">CreditCard</text>
</g>
<!-- \\EasyTransac\\Entities\\CreditCard&#45;&gt;\\EasyTransac\\Entities\\Entity -->
<g id="edge8" class="edge"><title>\\EasyTransac\\Entities\\CreditCard&#45;&gt;\\EasyTransac\\Entities\\Entity</title>
<path fill="none" stroke="black" d="M228.246,-1578.89C214.279,-1574.88 199.358,-1568.65 188,-1559 128.011,-1508.02 95.5397,-1417.09 82.2686,-1371.18"/>
<polygon fill="none" stroke="black" points="85.5734,-1370 79.513,-1361.31 78.8313,-1371.88 85.5734,-1370"/>
</g>
<!-- \\EasyTransac\\Entities\\OneClickTransaction -->
<g id="node6" class="node"><title>\\EasyTransac\\Entities\\OneClickTransaction</title>
<polygon fill="none" stroke="black" points="343,-1550 198,-1550 198,-1514 343,-1514 343,-1550"/>
<text text-anchor="middle" x="270.5" y="-1529.2" font-family="Courier,monospace" font-size="11.00">OneClickTransaction</text>
</g>
<!-- \\EasyTransac\\Entities\\OneClickTransaction&#45;&gt;\\EasyTransac\\Entities\\Entity -->
<g id="edge9" class="edge"><title>\\EasyTransac\\Entities\\OneClickTransaction&#45;&gt;\\EasyTransac\\Entities\\Entity</title>
<path fill="none" stroke="black" d="M202.732,-1513.97C197.529,-1511.36 192.54,-1508.39 188,-1505 139.884,-1469.11 104.737,-1406.56 87.3191,-1370.59"/>
<polygon fill="none" stroke="black" points="90.3161,-1368.74 82.8805,-1361.19 83.9866,-1371.73 90.3161,-1368.74"/>
</g>
<!-- \\EasyTransac\\Entities\\Cancellation -->
<g id="node7" class="node"><title>\\EasyTransac\\Entities\\Cancellation</title>
<polygon fill="none" stroke="black" points="319.5,-1496 221.5,-1496 221.5,-1460 319.5,-1460 319.5,-1496"/>
<text text-anchor="middle" x="270.5" y="-1475.2" font-family="Courier,monospace" font-size="11.00">Cancellation</text>
</g>
<!-- \\EasyTransac\\Entities\\Cancellation&#45;&gt;\\EasyTransac\\Entities\\Entity -->
<g id="edge10" class="edge"><title>\\EasyTransac\\Entities\\Cancellation&#45;&gt;\\EasyTransac\\Entities\\Entity</title>
<path fill="none" stroke="black" d="M221.393,-1465.97C210.011,-1462.09 198.219,-1457.14 188,-1451 151.434,-1429.01 117.159,-1393.3 96.1545,-1369.01"/>
<polygon fill="none" stroke="black" points="98.6992,-1366.6 89.5557,-1361.24 93.3658,-1371.13 98.6992,-1366.6"/>
</g>
<!-- \\EasyTransac\\Entities\\PaymentPageTransaction -->
<g id="node8" class="node"><title>\\EasyTransac\\Entities\\PaymentPageTransaction</title>
<polygon fill="none" stroke="black" points="353,-1442 188,-1442 188,-1406 353,-1406 353,-1442"/>
<text text-anchor="middle" x="270.5" y="-1421.2" font-family="Courier,monospace" font-size="11.00">PaymentPageTransaction</text>
</g>
<!-- \\EasyTransac\\Entities\\PaymentPageTransaction&#45;&gt;\\EasyTransac\\Entities\\Entity -->
<g id="edge11" class="edge"><title>\\EasyTransac\\Entities\\PaymentPageTransaction&#45;&gt;\\EasyTransac\\Entities\\Entity</title>
<path fill="none" stroke="black" d="M211.733,-1405.87C203.703,-1403.06 195.605,-1400.06 188,-1397 164.913,-1387.7 139.879,-1375.92 119.256,-1365.74"/>
<polygon fill="none" stroke="black" points="120.626,-1362.51 110.114,-1361.19 117.506,-1368.78 120.626,-1362.51"/>
</g>
<!-- \\EasyTransac\\Entities\\AddCreditCard -->
<g id="node9" class="node"><title>\\EasyTransac\\Entities\\AddCreditCard</title>
<polygon fill="none" stroke="black" points="322.5,-1388 218.5,-1388 218.5,-1352 322.5,-1352 322.5,-1388"/>
<text text-anchor="middle" x="270.5" y="-1367.2" font-family="Courier,monospace" font-size="11.00">AddCreditCard</text>
</g>
<!-- \\EasyTransac\\Entities\\AddCreditCard&#45;&gt;\\EasyTransac\\Entities\\Entity -->
<g id="edge12" class="edge"><title>\\EasyTransac\\Entities\\AddCreditCard&#45;&gt;\\EasyTransac\\Entities\\Entity</title>
<path fill="none" stroke="black" d="M218.397,-1362.91C190.029,-1358.97 154.84,-1354.08 126.421,-1350.14"/>
<polygon fill="none" stroke="black" points="126.668,-1346.64 116.282,-1348.73 125.706,-1353.57 126.668,-1346.64"/>
</g>
<!-- \\EasyTransac\\Entities\\PaymentPageInfos -->
<g id="node10" class="node"><title>\\EasyTransac\\Entities\\PaymentPageInfos</title>
<polygon fill="none" stroke="black" points="333,-1334 208,-1334 208,-1298 333,-1298 333,-1334"/>
<text text-anchor="middle" x="270.5" y="-1313.2" font-family="Courier,monospace" font-size="11.00">PaymentPageInfos</text>
</g>
<!-- \\EasyTransac\\Entities\\PaymentPageInfos&#45;&gt;\\EasyTransac\\Entities\\Entity -->
<g id="edge16" class="edge"><title>\\EasyTransac\\Entities\\PaymentPageInfos&#45;&gt;\\EasyTransac\\Entities\\Entity</title>
<path fill="none" stroke="black" d="M207.959,-1324.54C181.646,-1328.2 151.283,-1332.41 126.222,-1335.89"/>
<polygon fill="none" stroke="black" points="125.613,-1332.44 116.189,-1337.28 126.575,-1339.37 125.613,-1332.44"/>
</g>
<!-- \\EasyTransac\\Entities\\User -->
<g id="node11" class="node"><title>\\EasyTransac\\Entities\\User</title>
<polygon fill="none" stroke="black" points="297.5,-1280 243.5,-1280 243.5,-1244 297.5,-1244 297.5,-1280"/>
<text text-anchor="middle" x="270.5" y="-1259.2" font-family="Courier,monospace" font-size="11.00">User</text>
</g>
<!-- \\EasyTransac\\Entities\\User&#45;&gt;\\EasyTransac\\Entities\\Entity -->
<g id="edge17" class="edge"><title>\\EasyTransac\\Entities\\User&#45;&gt;\\EasyTransac\\Entities\\Entity</title>
<path fill="none" stroke="black" d="M243.138,-1269.81C227.029,-1274.81 206.113,-1281.71 188,-1289 164.913,-1298.3 139.879,-1310.08 119.256,-1320.26"/>
<polygon fill="none" stroke="black" points="117.506,-1317.22 110.114,-1324.81 120.626,-1323.49 117.506,-1317.22"/>
</g>
<!-- \\EasyTransac\\Entities\\Refund -->
<g id="node12" class="node"><title>\\EasyTransac\\Entities\\Refund</title>
<polygon fill="none" stroke="black" points="299,-1226 242,-1226 242,-1190 299,-1190 299,-1226"/>
<text text-anchor="middle" x="270.5" y="-1205.2" font-family="Courier,monospace" font-size="11.00">Refund</text>
</g>
<!-- \\EasyTransac\\Entities\\Refund&#45;&gt;\\EasyTransac\\Entities\\Entity -->
<g id="edge19" class="edge"><title>\\EasyTransac\\Entities\\Refund&#45;&gt;\\EasyTransac\\Entities\\Entity</title>
<path fill="none" stroke="black" d="M241.774,-1213.93C225.364,-1218.21 204.607,-1225.02 188,-1235 151.434,-1256.99 117.159,-1292.7 96.1545,-1316.99"/>
<polygon fill="none" stroke="black" points="93.3658,-1314.87 89.5557,-1324.76 98.6992,-1319.4 93.3658,-1314.87"/>
</g>
<!-- \\EasyTransac\\Entities\\UserInfos -->
<g id="node13" class="node"><title>\\EasyTransac\\Entities\\UserInfos</title>
<polygon fill="none" stroke="black" points="309,-1172 232,-1172 232,-1136 309,-1136 309,-1172"/>
<text text-anchor="middle" x="270.5" y="-1151.2" font-family="Courier,monospace" font-size="11.00">UserInfos</text>
</g>
<!-- \\EasyTransac\\Entities\\UserInfos&#45;&gt;\\EasyTransac\\Entities\\Entity -->
<g id="edge20" class="edge"><title>\\EasyTransac\\Entities\\UserInfos&#45;&gt;\\EasyTransac\\Entities\\Entity</title>
<path fill="none" stroke="black" d="M231.805,-1161.1C217.12,-1165.18 200.785,-1171.46 188,-1181 139.884,-1216.89 104.737,-1279.44 87.3191,-1315.41"/>
<polygon fill="none" stroke="black" points="83.9866,-1314.27 82.8805,-1324.81 90.3161,-1317.26 83.9866,-1314.27"/>
</g>
<!-- \\EasyTransac\\Entities\\DoneTransaction -->
<g id="node14" class="node"><title>\\EasyTransac\\Entities\\DoneTransaction</title>
<polygon fill="none" stroke="black" points="329.5,-1118 211.5,-1118 211.5,-1082 329.5,-1082 329.5,-1118"/>
<text text-anchor="middle" x="270.5" y="-1097.2" font-family="Courier,monospace" font-size="11.00">DoneTransaction</text>
</g>
<!-- \\EasyTransac\\Entities\\DoneTransaction&#45;&gt;\\EasyTransac\\Entities\\Entity -->
<g id="edge21" class="edge"><title>\\EasyTransac\\Entities\\DoneTransaction&#45;&gt;\\EasyTransac\\Entities\\Entity</title>
<path fill="none" stroke="black" d="M211.317,-1113.06C202.913,-1116.65 194.815,-1121.21 188,-1127 128.011,-1177.98 95.5397,-1268.91 82.2686,-1314.82"/>
<polygon fill="none" stroke="black" points="78.8313,-1314.12 79.513,-1324.69 85.5734,-1316 78.8313,-1314.12"/>
</g>
<!-- \\EasyTransac\\Entities\\PaymentStatus -->
<g id="node15" class="node"><title>\\EasyTransac\\Entities\\PaymentStatus</title>
<polygon fill="none" stroke="black" points="322.5,-1064 218.5,-1064 218.5,-1028 322.5,-1028 322.5,-1064"/>
<text text-anchor="middle" x="270.5" y="-1043.2" font-family="Courier,monospace" font-size="11.00">PaymentStatus</text>
</g>
<!-- \\EasyTransac\\Entities\\PaymentStatus&#45;&gt;\\EasyTransac\\Entities\\Entity -->
<g id="edge25" class="edge"><title>\\EasyTransac\\Entities\\PaymentStatus&#45;&gt;\\EasyTransac\\Entities\\Entity</title>
<path fill="none" stroke="black" d="M218.458,-1055.55C207.427,-1059.51 196.529,-1065.1 188,-1073 115.656,-1140.01 88.0585,-1260.58 78.9389,-1315"/>
<polygon fill="none" stroke="black" points="75.4681,-1314.54 77.3536,-1324.97 82.3812,-1315.64 75.4681,-1314.54"/>
</g>
<!-- \\EasyTransac\\Entities\\CreditCardsList -->
<g id="node16" class="node"><title>\\EasyTransac\\Entities\\CreditCardsList</title>
<polygon fill="none" stroke="black" points="329.5,-1010 211.5,-1010 211.5,-974 329.5,-974 329.5,-1010"/>
<text text-anchor="middle" x="270.5" y="-989.2" font-family="Courier,monospace" font-size="11.00">CreditCardsList</text>
</g>
<!-- \\EasyTransac\\Entities\\CreditCardsList&#45;&gt;\\EasyTransac\\Entities\\Entity -->
<g id="edge26" class="edge"><title>\\EasyTransac\\Entities\\CreditCardsList&#45;&gt;\\EasyTransac\\Entities\\Entity</title>
<path fill="none" stroke="black" d="M211.372,-1003.85C202.762,-1007.59 194.586,-1012.52 188,-1019 103.498,-1102.19 82.087,-1251.89 76.7429,-1314.38"/>
<polygon fill="none" stroke="black" points="73.2294,-1314.42 75.9438,-1324.66 80.2084,-1314.96 73.2294,-1314.42"/>
</g>
<!-- \\EasyTransac\\Entities\\Customer -->
<g id="node17" class="node"><title>\\EasyTransac\\Entities\\Customer</title>
<polygon fill="none" stroke="black" points="306,-956 235,-956 235,-920 306,-920 306,-956"/>
<text text-anchor="middle" x="270.5" y="-935.2" font-family="Courier,monospace" font-size="11.00">Customer</text>
</g>
<!-- \\EasyTransac\\Entities\\Customer&#45;&gt;\\EasyTransac\\Entities\\Entity -->
<g id="edge27" class="edge"><title>\\EasyTransac\\Entities\\Customer&#45;&gt;\\EasyTransac\\Entities\\Entity</title>
<path fill="none" stroke="black" d="M234.666,-942.078C218.526,-945.659 200.253,-952.381 188,-965 90.8482,-1065.05 76.7539,-1245.06 75.0541,-1314.56"/>
<polygon fill="none" stroke="black" points="71.5517,-1314.67 74.8769,-1324.73 78.5506,-1314.79 71.5517,-1314.67"/>
</g>
<!-- \\EasyTransac\\Requests\\FindUser -->
<g id="node18" class="node"><title>\\EasyTransac\\Requests\\FindUser</title>
<polygon fill="none" stroke="black" points="306,-876 235,-876 235,-840 306,-840 306,-876"/>
<text text-anchor="middle" x="270.5" y="-855.2" font-family="Courier,monospace" font-size="11.00">FindUser</text>
</g>
<!-- \\EasyTransac\\Requests\\Request -->
<g id="node22" class="node"><title>\\EasyTransac\\Requests\\Request</title>
<polygon fill="none" stroke="black" points="116,-606 32,-606 32,-570 116,-570 116,-606"/>
<text text-anchor="start" x="40" y="-591.2" font-family="Courier,monospace" font-size="11.00">«abstract»</text>
<text text-anchor="start" x="50" y="-579.2" font-family="Courier,monospace" font-size="11.00">Request</text>
</g>
<!-- \\EasyTransac\\Requests\\FindUser&#45;&gt;\\EasyTransac\\Requests\\Request -->
<g id="edge2" class="edge"><title>\\EasyTransac\\Requests\\FindUser&#45;&gt;\\EasyTransac\\Requests\\Request</title>
<path fill="none" stroke="black" d="M234.62,-852.926C218.855,-849.123 200.911,-842.501 188,-831 121.835,-772.06 91.5756,-666.324 80.4177,-616.042"/>
<polygon fill="none" stroke="black" points="83.8261,-615.243 78.3206,-606.191 76.9795,-616.7 83.8261,-615.243"/>
</g>
<!-- \\EasyTransac\\Requests\\PaymentRefund -->
<g id="node19" class="node"><title>\\EasyTransac\\Requests\\PaymentRefund</title>
<polygon fill="none" stroke="black" points="322.5,-822 218.5,-822 218.5,-786 322.5,-786 322.5,-822"/>
<text text-anchor="middle" x="270.5" y="-801.2" font-family="Courier,monospace" font-size="11.00">PaymentRefund</text>
</g>
<!-- \\EasyTransac\\Requests\\PaymentRefund&#45;&gt;\\EasyTransac\\Requests\\Request -->
<g id="edge3" class="edge"><title>\\EasyTransac\\Requests\\PaymentRefund&#45;&gt;\\EasyTransac\\Requests\\Request</title>
<path fill="none" stroke="black" d="M218.391,-793.237C207.611,-789.346 196.837,-784.087 188,-777 133.974,-733.674 99.826,-657.029 84.4759,-615.913"/>
<polygon fill="none" stroke="black" points="87.6775,-614.475 80.9777,-606.267 81.0968,-616.861 87.6775,-614.475"/>
</g>
<!-- \\EasyTransac\\Requests\\AddUser -->
<g id="node20" class="node"><title>\\EasyTransac\\Requests\\AddUser</title>
<polygon fill="none" stroke="black" points="302.5,-768 238.5,-768 238.5,-732 302.5,-732 302.5,-768"/>
<text text-anchor="middle" x="270.5" y="-747.2" font-family="Courier,monospace" font-size="11.00">AddUser</text>
</g>
<!-- \\EasyTransac\\Requests\\AddUser&#45;&gt;\\EasyTransac\\Requests\\Request -->
<g id="edge5" class="edge"><title>\\EasyTransac\\Requests\\AddUser&#45;&gt;\\EasyTransac\\Requests\\Request</title>
<path fill="none" stroke="black" d="M238.249,-743.953C222.255,-739.832 203.04,-733.221 188,-723 145.617,-694.197 110.282,-645.219 90.9414,-614.845"/>
<polygon fill="none" stroke="black" points="93.7238,-612.692 85.4626,-606.058 87.784,-616.396 93.7238,-612.692"/>
</g>
<!-- \\EasyTransac\\Requests\\CreditCardsList -->
<g id="node21" class="node"><title>\\EasyTransac\\Requests\\CreditCardsList</title>
<polygon fill="none" stroke="black" points="329.5,-714 211.5,-714 211.5,-678 329.5,-678 329.5,-714"/>
<text text-anchor="middle" x="270.5" y="-693.2" font-family="Courier,monospace" font-size="11.00">CreditCardsList</text>
</g>
<!-- \\EasyTransac\\Requests\\CreditCardsList&#45;&gt;\\EasyTransac\\Requests\\Request -->
<g id="edge7" class="edge"><title>\\EasyTransac\\Requests\\CreditCardsList&#45;&gt;\\EasyTransac\\Requests\\Request</title>
<path fill="none" stroke="black" d="M211.18,-679.082C203.234,-676.087 195.306,-672.719 188,-669 157.482,-653.463 126.084,-630.269 104.154,-612.677"/>
<polygon fill="none" stroke="black" points="106.201,-609.831 96.2345,-606.237 101.785,-615.262 106.201,-609.831"/>
</g>
<!-- \\EasyTransac\\Requests\\AddCreditCard -->
<g id="node23" class="node"><title>\\EasyTransac\\Requests\\AddCreditCard</title>
<polygon fill="none" stroke="black" points="322.5,-660 218.5,-660 218.5,-624 322.5,-624 322.5,-660"/>
<text text-anchor="middle" x="270.5" y="-639.2" font-family="Courier,monospace" font-size="11.00">AddCreditCard</text>
</g>
<!-- \\EasyTransac\\Requests\\AddCreditCard&#45;&gt;\\EasyTransac\\Requests\\Request -->
<g id="edge13" class="edge"><title>\\EasyTransac\\Requests\\AddCreditCard&#45;&gt;\\EasyTransac\\Requests\\Request</title>
<path fill="none" stroke="black" d="M218.397,-627.812C189.904,-619.901 154.531,-610.081 126.047,-602.172"/>
<polygon fill="none" stroke="black" points="126.854,-598.764 116.282,-599.461 124.981,-605.509 126.854,-598.764"/>
</g>
<!-- \\EasyTransac\\Requests\\DirectPayment -->
<g id="node24" class="node"><title>\\EasyTransac\\Requests\\DirectPayment</title>
<polygon fill="none" stroke="black" points="322.5,-606 218.5,-606 218.5,-570 322.5,-570 322.5,-606"/>
<text text-anchor="middle" x="270.5" y="-585.2" font-family="Courier,monospace" font-size="11.00">DirectPayment</text>
</g>
<!-- \\EasyTransac\\Requests\\DirectPayment&#45;&gt;\\EasyTransac\\Requests\\Request -->
<g id="edge14" class="edge"><title>\\EasyTransac\\Requests\\DirectPayment&#45;&gt;\\EasyTransac\\Requests\\Request</title>
<path fill="none" stroke="black" d="M218.397,-588C190.029,-588 154.84,-588 126.421,-588"/>
<polygon fill="none" stroke="black" points="126.282,-584.5 116.282,-588 126.282,-591.5 126.282,-584.5"/>
</g>
<!-- \\EasyTransac\\Requests\\PaymentStatus -->
<g id="node25" class="node"><title>\\EasyTransac\\Requests\\PaymentStatus</title>
<polygon fill="none" stroke="black" points="322.5,-552 218.5,-552 218.5,-516 322.5,-516 322.5,-552"/>
<text text-anchor="middle" x="270.5" y="-531.2" font-family="Courier,monospace" font-size="11.00">PaymentStatus</text>
</g>
<!-- \\EasyTransac\\Requests\\PaymentStatus&#45;&gt;\\EasyTransac\\Requests\\Request -->
<g id="edge15" class="edge"><title>\\EasyTransac\\Requests\\PaymentStatus&#45;&gt;\\EasyTransac\\Requests\\Request</title>
<path fill="none" stroke="black" d="M218.397,-548.188C189.904,-556.099 154.531,-565.919 126.047,-573.828"/>
<polygon fill="none" stroke="black" points="124.981,-570.491 116.282,-576.539 126.854,-577.236 124.981,-570.491"/>
</g>
<!-- \\EasyTransac\\Requests\\UpdateUser -->
<g id="node26" class="node"><title>\\EasyTransac\\Requests\\UpdateUser</title>
<polygon fill="none" stroke="black" points="312.5,-498 228.5,-498 228.5,-462 312.5,-462 312.5,-498"/>
<text text-anchor="middle" x="270.5" y="-477.2" font-family="Courier,monospace" font-size="11.00">UpdateUser</text>
</g>
<!-- \\EasyTransac\\Requests\\UpdateUser&#45;&gt;\\EasyTransac\\Requests\\Request -->
<g id="edge18" class="edge"><title>\\EasyTransac\\Requests\\UpdateUser&#45;&gt;\\EasyTransac\\Requests\\Request</title>
<path fill="none" stroke="black" d="M228.314,-490.982C215.096,-495.201 200.619,-500.575 188,-507 157.482,-522.537 126.084,-545.731 104.154,-563.323"/>
<polygon fill="none" stroke="black" points="101.785,-560.738 96.2345,-569.763 106.201,-566.169 101.785,-560.738"/>
</g>
<!-- \\EasyTransac\\Requests\\PaymentPage -->
<g id="node27" class="node"><title>\\EasyTransac\\Requests\\PaymentPage</title>
<polygon fill="none" stroke="black" points="316,-444 225,-444 225,-408 316,-408 316,-444"/>
<text text-anchor="middle" x="270.5" y="-423.2" font-family="Courier,monospace" font-size="11.00">PaymentPage</text>
</g>
<!-- \\EasyTransac\\Requests\\PaymentPage&#45;&gt;\\EasyTransac\\Requests\\Request -->
<g id="edge22" class="edge"><title>\\EasyTransac\\Requests\\PaymentPage&#45;&gt;\\EasyTransac\\Requests\\Request</title>
<path fill="none" stroke="black" d="M224.71,-435.96C212.166,-440.008 198.972,-445.544 188,-453 145.617,-481.803 110.282,-530.781 90.9414,-561.155"/>
<polygon fill="none" stroke="black" points="87.784,-559.604 85.4626,-569.942 93.7238,-563.308 87.784,-559.604"/>
</g>
<!-- \\EasyTransac\\Requests\\OneClickPayment -->
<g id="node28" class="node"><title>\\EasyTransac\\Requests\\OneClickPayment</title>
<polygon fill="none" stroke="black" points="329.5,-390 211.5,-390 211.5,-354 329.5,-354 329.5,-390"/>
<text text-anchor="middle" x="270.5" y="-369.2" font-family="Courier,monospace" font-size="11.00">OneClickPayment</text>
</g>
<!-- \\EasyTransac\\Requests\\OneClickPayment&#45;&gt;\\EasyTransac\\Requests\\Request -->
<g id="edge23" class="edge"><title>\\EasyTransac\\Requests\\OneClickPayment&#45;&gt;\\EasyTransac\\Requests\\Request</title>
<path fill="none" stroke="black" d="M211.18,-385.584C202.888,-389.098 194.861,-393.498 188,-399 133.974,-442.326 99.826,-518.971 84.4759,-560.087"/>
<polygon fill="none" stroke="black" points="81.0968,-559.139 80.9777,-569.733 87.6775,-561.525 81.0968,-559.139"/>
</g>
<!-- \\EasyTransac\\Requests\\Cancellation -->
<g id="node29" class="node"><title>\\EasyTransac\\Requests\\Cancellation</title>
<polygon fill="none" stroke="black" points="319.5,-336 221.5,-336 221.5,-300 319.5,-300 319.5,-336"/>
<text text-anchor="middle" x="270.5" y="-315.2" font-family="Courier,monospace" font-size="11.00">Cancellation</text>
</g>
<!-- \\EasyTransac\\Requests\\Cancellation&#45;&gt;\\EasyTransac\\Requests\\Request -->
<g id="edge24" class="edge"><title>\\EasyTransac\\Requests\\Cancellation&#45;&gt;\\EasyTransac\\Requests\\Request</title>
<path fill="none" stroke="black" d="M221.227,-326.908C209.338,-330.902 197.349,-336.672 188,-345 121.835,-403.94 91.5756,-509.676 80.4177,-559.958"/>
<polygon fill="none" stroke="black" points="76.9795,-559.3 78.3206,-569.809 83.8261,-560.757 76.9795,-559.3"/>
</g>
<!-- \\EasyTransac\\Core\\Services -->
<g id="node30" class="node"><title>\\EasyTransac\\Core\\Services</title>
<polygon fill="none" stroke="black" points="306,-176 235,-176 235,-140 306,-140 306,-176"/>
<text text-anchor="middle" x="270.5" y="-155.2" font-family="Courier,monospace" font-size="11.00">Services</text>
</g>
<!-- \\EasyTransac\\Core\\Security -->
<g id="node31" class="node"><title>\\EasyTransac\\Core\\Security</title>
<polygon fill="none" stroke="black" points="306,-122 235,-122 235,-86 306,-86 306,-122"/>
<text text-anchor="middle" x="270.5" y="-101.2" font-family="Courier,monospace" font-size="11.00">Security</text>
</g>
<!-- \\EasyTransac\\Core\\CommentParser -->
<g id="node32" class="node"><title>\\EasyTransac\\Core\\CommentParser</title>
<polygon fill="none" stroke="black" points="322.5,-68 218.5,-68 218.5,-32 322.5,-32 322.5,-68"/>
<text text-anchor="middle" x="270.5" y="-47.2" font-family="Courier,monospace" font-size="11.00">CommentParser</text>
</g>
<!-- \\EasyTransac\\Responses\\StandardResponse -->
<g id="node33" class="node"><title>\\EasyTransac\\Responses\\StandardResponse</title>
<polygon fill="none" stroke="black" points="333,-256 208,-256 208,-220 333,-220 333,-256"/>
<text text-anchor="middle" x="270.5" y="-235.2" font-family="Courier,monospace" font-size="11.00">StandardResponse</text>
</g>
</g>
</svg>
