<?xml version="1.0" encoding="UTF-8" standalone="no"?>
<!DOCTYPE svg PUBLIC "-//W3C//DTD SVG 1.1//EN"
 "http://www.w3.org/Graphics/SVG/1.1/DTD/svg11.dtd">
<!-- Generated by graphviz version 2.38.0 (20140413.2041)
 -->
<!-- Title: G Pages: 1 -->
<svg width="427pt" height="2352pt"
 viewBox="0.00 0.00 427.00 2352.00" xmlns="http://www.w3.org/2000/svg" xmlns:xlink="http://www.w3.org/1999/xlink">
<g id="graph0" class="graph" transform="scale(1 1) rotate(0) translate(4 2348)">
<title>G</title>
<polygon fill="white" stroke="none" points="-4,4 -4,-2348 423,-2348 423,4 -4,4"/>
<g id="clust1" class="cluster"><title>cluster_Global</title>
<path fill="none" stroke="gray" d="M20,-8C20,-8 399,-8 399,-8 405,-8 411,-14 411,-20 411,-20 411,-2324 411,-2324 411,-2330 405,-2336 399,-2336 399,-2336 20,-2336 20,-2336 14,-2336 8,-2330 8,-2324 8,-2324 8,-20 8,-20 8,-14 14,-8 20,-8"/>
<text text-anchor="middle" x="209.5" y="-2323.2" font-family="Times New Roman,serif" font-size="11.00" fill="gray">Global</text>
</g>
<g id="clust2" class="cluster"><title>cluster_\EasyTransac</title>
<path fill="none" stroke="gray" d="M28,-16C28,-16 391,-16 391,-16 397,-16 403,-22 403,-28 403,-28 403,-2296 403,-2296 403,-2302 397,-2308 391,-2308 391,-2308 28,-2308 28,-2308 22,-2308 16,-2302 16,-2296 16,-2296 16,-28 16,-28 16,-22 22,-16 28,-16"/>
<text text-anchor="middle" x="209.5" y="-2295.2" font-family="Times New Roman,serif" font-size="11.00" fill="gray">EasyTransac</text>
</g>
<g id="clust3" class="cluster"><title>cluster_\EasyTransac\Entities</title>
<path fill="none" stroke="gray" d="M53,-1236C53,-1236 383,-1236 383,-1236 389,-1236 395,-1242 395,-1248 395,-1248 395,-2268 395,-2268 395,-2274 389,-2280 383,-2280 383,-2280 53,-2280 53,-2280 47,-2280 41,-2274 41,-2268 41,-2268 41,-1248 41,-1248 41,-1242 47,-1236 53,-1236"/>
<text text-anchor="middle" x="218" y="-2267.2" font-family="Times New Roman,serif" font-size="11.00" fill="gray">Entities</text>
</g>
<g id="clust4" class="cluster"><title>cluster_\EasyTransac\Requests</title>
<path fill="none" stroke="gray" d="M53,-562C53,-562 359.5,-562 359.5,-562 365.5,-562 371.5,-568 371.5,-574 371.5,-574 371.5,-1216 371.5,-1216 371.5,-1222 365.5,-1228 359.5,-1228 359.5,-1228 53,-1228 53,-1228 47,-1228 41,-1222 41,-1216 41,-1216 41,-574 41,-574 41,-568 47,-562 53,-562"/>
<text text-anchor="middle" x="206.25" y="-1215.2" font-family="Times New Roman,serif" font-size="11.00" fill="gray">Requests</text>
</g>
<g id="clust6" class="cluster"><title>cluster_\EasyTransac\Responses</title>
<path fill="none" stroke="gray" d="M246,-482C246,-482 363,-482 363,-482 369,-482 375,-488 375,-494 375,-494 375,-542 375,-542 375,-548 369,-554 363,-554 363,-554 246,-554 246,-554 240,-554 234,-548 234,-542 234,-542 234,-494 234,-494 234,-488 240,-482 246,-482"/>
<text text-anchor="middle" x="304.5" y="-541.2" font-family="Times New Roman,serif" font-size="11.00" fill="gray">Responses</text>
</g>
<g id="clust5" class="cluster"><title>cluster_\EasyTransac\Core</title>
<path fill="none" stroke="gray" d="M36,-24C36,-24 373,-24 373,-24 379,-24 385,-30 385,-36 385,-36 385,-462 385,-462 385,-468 379,-474 373,-474 373,-474 36,-474 36,-474 30,-474 24,-468 24,-462 24,-462 24,-36 24,-36 24,-30 30,-24 36,-24"/>
<text text-anchor="middle" x="204.5" y="-461.2" font-family="Times New Roman,serif" font-size="11.00" fill="gray">Core</text>
</g>
<!-- \\EasyTransac\\Entities\\CancellationInfos -->
<g id="node1" class="node"><title>\\EasyTransac\\Entities\\CancellationInfos</title>
<polygon fill="none" stroke="black" points="370,-2252 239,-2252 239,-2216 370,-2216 370,-2252"/>
<text text-anchor="middle" x="304.5" y="-2231.2" font-family="Courier,monospace" font-size="11.00">CancellationInfos</text>
</g>
<!-- \\EasyTransac\\Entities\\Entity -->
<g id="node2" class="node"><title>\\EasyTransac\\Entities\\Entity</title>
<polygon fill="none" stroke="black" points="133,-1766 49,-1766 49,-1730 133,-1730 133,-1766"/>
<text text-anchor="start" x="57" y="-1751.2" font-family="Courier,monospace" font-size="11.00">«abstract»</text>
<text text-anchor="start" x="70.5" y="-1739.2" font-family="Courier,monospace" font-size="11.00">Entity</text>
</g>
<!-- \\EasyTransac\\Entities\\CancellationInfos&#45;&gt;\\EasyTransac\\Entities\\Entity -->
<g id="edge1" class="edge"><title>\\EasyTransac\\Entities\\CancellationInfos&#45;&gt;\\EasyTransac\\Entities\\Entity</title>
<path fill="none" stroke="black" d="M238.918,-2219.52C232.656,-2216.17 226.844,-2212.06 222,-2207 102.499,-2082.13 91.44,-1855.83 91.4343,-1776.45"/>
<polygon fill="none" stroke="black" points="94.9354,-1776.27 91.4968,-1766.25 87.9355,-1776.22 94.9354,-1776.27"/>
</g>
<!-- \\EasyTransac\\Entities\\DirectTransaction -->
<g id="node3" class="node"><title>\\EasyTransac\\Entities\\DirectTransaction</title>
<polygon fill="none" stroke="black" points="370,-2198 239,-2198 239,-2162 370,-2162 370,-2198"/>
<text text-anchor="middle" x="304.5" y="-2177.2" font-family="Courier,monospace" font-size="11.00">DirectTransaction</text>
</g>
<!-- \\EasyTransac\\Entities\\DirectTransaction&#45;&gt;\\EasyTransac\\Entities\\Entity -->
<g id="edge4" class="edge"><title>\\EasyTransac\\Entities\\DirectTransaction&#45;&gt;\\EasyTransac\\Entities\\Entity</title>
<path fill="none" stroke="black" d="M238.69,-2165.13C232.549,-2161.86 226.826,-2157.87 222,-2153 115.219,-2045.22 96.101,-1849.58 92.7143,-1776.53"/>
<polygon fill="none" stroke="black" points="96.2012,-1776.13 92.3073,-1766.27 89.2067,-1776.4 96.2012,-1776.13"/>
</g>
<!-- \\EasyTransac\\Entities\\FindUserBy -->
<g id="node4" class="node"><title>\\EasyTransac\\Entities\\FindUserBy</title>
<polygon fill="none" stroke="black" points="346.5,-2144 262.5,-2144 262.5,-2108 346.5,-2108 346.5,-2144"/>
<text text-anchor="middle" x="304.5" y="-2123.2" font-family="Courier,monospace" font-size="11.00">FindUserBy</text>
</g>
<!-- \\EasyTransac\\Entities\\FindUserBy&#45;&gt;\\EasyTransac\\Entities\\Entity -->
<g id="edge7" class="edge"><title>\\EasyTransac\\Entities\\FindUserBy&#45;&gt;\\EasyTransac\\Entities\\Entity</title>
<path fill="none" stroke="black" d="M262.377,-2119.91C248.096,-2115.99 232.936,-2109.56 222,-2099 127.689,-2007.92 101.287,-1842.37 94.3332,-1776.32"/>
<polygon fill="none" stroke="black" points="97.8043,-1775.85 93.3442,-1766.24 90.8378,-1776.54 97.8043,-1775.85"/>
</g>
<!-- \\EasyTransac\\Entities\\CreditCard -->
<g id="node5" class="node"><title>\\EasyTransac\\Entities\\CreditCard</title>
<polygon fill="none" stroke="black" points="346.5,-2090 262.5,-2090 262.5,-2054 346.5,-2054 346.5,-2090"/>
<text text-anchor="middle" x="304.5" y="-2069.2" font-family="Courier,monospace" font-size="11.00">CreditCard</text>
</g>
<!-- \\EasyTransac\\Entities\\CreditCard&#45;&gt;\\EasyTransac\\Entities\\Entity -->
<g id="edge9" class="edge"><title>\\EasyTransac\\Entities\\CreditCard&#45;&gt;\\EasyTransac\\Entities\\Entity</title>
<path fill="none" stroke="black" d="M262.285,-2065.44C248.16,-2061.48 233.127,-2055.14 222,-2045 140.149,-1970.4 107.323,-1835.03 96.5137,-1776.37"/>
<polygon fill="none" stroke="black" points="99.9287,-1775.58 94.7447,-1766.34 93.0351,-1776.8 99.9287,-1775.58"/>
</g>
<!-- \\EasyTransac\\Entities\\OneClickTransaction -->
<g id="node6" class="node"><title>\\EasyTransac\\Entities\\OneClickTransaction</title>
<polygon fill="none" stroke="black" points="377,-2036 232,-2036 232,-2000 377,-2000 377,-2036"/>
<text text-anchor="middle" x="304.5" y="-2015.2" font-family="Courier,monospace" font-size="11.00">OneClickTransaction</text>
</g>
<!-- \\EasyTransac\\Entities\\OneClickTransaction&#45;&gt;\\EasyTransac\\Entities\\Entity -->
<g id="edge10" class="edge"><title>\\EasyTransac\\Entities\\OneClickTransaction&#45;&gt;\\EasyTransac\\Entities\\Entity</title>
<path fill="none" stroke="black" d="M235.077,-1999.89C230.414,-1997.31 225.991,-1994.36 222,-1991 152.29,-1932.32 114.351,-1826.45 99.4932,-1776.09"/>
<polygon fill="none" stroke="black" points="102.786,-1774.88 96.6699,-1766.22 96.0558,-1776.8 102.786,-1774.88"/>
</g>
<!-- \\EasyTransac\\Entities\\Client -->
<g id="node7" class="node"><title>\\EasyTransac\\Entities\\Client</title>
<polygon fill="none" stroke="black" points="333,-1982 276,-1982 276,-1946 333,-1946 333,-1982"/>
<text text-anchor="middle" x="304.5" y="-1961.2" font-family="Courier,monospace" font-size="11.00">Client</text>
</g>
<!-- \\EasyTransac\\Entities\\Client&#45;&gt;\\EasyTransac\\Entities\\Entity -->
<g id="edge11" class="edge"><title>\\EasyTransac\\Entities\\Client&#45;&gt;\\EasyTransac\\Entities\\Entity</title>
<path fill="none" stroke="black" d="M275.733,-1959.45C258.91,-1955.62 237.733,-1948.81 222,-1937 164.067,-1893.5 122.824,-1816.38 103.805,-1775.39"/>
<polygon fill="none" stroke="black" points="106.983,-1773.93 99.6621,-1766.27 100.609,-1776.82 106.983,-1773.93"/>
</g>
<!-- \\EasyTransac\\Entities\\Cancellation -->
<g id="node8" class="node"><title>\\EasyTransac\\Entities\\Cancellation</title>
<polygon fill="none" stroke="black" points="353.5,-1928 255.5,-1928 255.5,-1892 353.5,-1892 353.5,-1928"/>
<text text-anchor="middle" x="304.5" y="-1907.2" font-family="Courier,monospace" font-size="11.00">Cancellation</text>
</g>
<!-- \\EasyTransac\\Entities\\Cancellation&#45;&gt;\\EasyTransac\\Entities\\Entity -->
<g id="edge12" class="edge"><title>\\EasyTransac\\Entities\\Cancellation&#45;&gt;\\EasyTransac\\Entities\\Entity</title>
<path fill="none" stroke="black" d="M255.21,-1898.27C243.832,-1894.38 232.09,-1889.36 222,-1883 175.695,-1853.83 134.122,-1804.72 111.05,-1774.46"/>
<polygon fill="none" stroke="black" points="113.846,-1772.36 105.044,-1766.46 108.247,-1776.56 113.846,-1772.36"/>
</g>
<!-- \\EasyTransac\\Entities\\PaymentPageTransaction -->
<g id="node9" class="node"><title>\\EasyTransac\\Entities\\PaymentPageTransaction</title>
<polygon fill="none" stroke="black" points="387,-1874 222,-1874 222,-1838 387,-1838 387,-1874"/>
<text text-anchor="middle" x="304.5" y="-1853.2" font-family="Courier,monospace" font-size="11.00">PaymentPageTransaction</text>
</g>
<!-- \\EasyTransac\\Entities\\PaymentPageTransaction&#45;&gt;\\EasyTransac\\Entities\\Entity -->
<g id="edge14" class="edge"><title>\\EasyTransac\\Entities\\PaymentPageTransaction&#45;&gt;\\EasyTransac\\Entities\\Entity</title>
<path fill="none" stroke="black" d="M243.655,-1838C236.257,-1835.24 228.882,-1832.23 222,-1829 187.542,-1812.84 150.979,-1789.43 125.436,-1771.93"/>
<polygon fill="none" stroke="black" points="127.096,-1768.82 116.882,-1766.01 123.111,-1774.58 127.096,-1768.82"/>
</g>
<!-- \\EasyTransac\\Entities\\Notification -->
<g id="node10" class="node"><title>\\EasyTransac\\Entities\\Notification</title>
<polygon fill="none" stroke="black" points="353.5,-1820 255.5,-1820 255.5,-1784 353.5,-1784 353.5,-1820"/>
<text text-anchor="middle" x="304.5" y="-1799.2" font-family="Courier,monospace" font-size="11.00">Notification</text>
</g>
<!-- \\EasyTransac\\Entities\\Notification&#45;&gt;\\EasyTransac\\Entities\\Entity -->
<g id="edge15" class="edge"><title>\\EasyTransac\\Entities\\Notification&#45;&gt;\\EasyTransac\\Entities\\Entity</title>
<path fill="none" stroke="black" d="M255.243,-1789.68C221.731,-1781.12 177.153,-1769.74 143.049,-1761.03"/>
<polygon fill="none" stroke="black" points="143.832,-1757.62 133.276,-1758.54 142.1,-1764.4 143.832,-1757.62"/>
</g>
<!-- \\EasyTransac\\Entities\\AddCreditCard -->
<g id="node11" class="node"><title>\\EasyTransac\\Entities\\AddCreditCard</title>
<polygon fill="none" stroke="black" points="356.5,-1766 252.5,-1766 252.5,-1730 356.5,-1730 356.5,-1766"/>
<text text-anchor="middle" x="304.5" y="-1745.2" font-family="Courier,monospace" font-size="11.00">AddCreditCard</text>
</g>
<!-- \\EasyTransac\\Entities\\AddCreditCard&#45;&gt;\\EasyTransac\\Entities\\Entity -->
<g id="edge16" class="edge"><title>\\EasyTransac\\Entities\\AddCreditCard&#45;&gt;\\EasyTransac\\Entities\\Entity</title>
<path fill="none" stroke="black" d="M252.302,-1748C219.318,-1748 176.583,-1748 143.533,-1748"/>
<polygon fill="none" stroke="black" points="143.168,-1744.5 133.167,-1748 143.167,-1751.5 143.168,-1744.5"/>
</g>
<!-- \\EasyTransac\\Entities\\PaymentPageInfos -->
<g id="node12" class="node"><title>\\EasyTransac\\Entities\\PaymentPageInfos</title>
<polygon fill="none" stroke="black" points="367,-1712 242,-1712 242,-1676 367,-1676 367,-1712"/>
<text text-anchor="middle" x="304.5" y="-1691.2" font-family="Courier,monospace" font-size="11.00">PaymentPageInfos</text>
</g>
<!-- \\EasyTransac\\Entities\\PaymentPageInfos&#45;&gt;\\EasyTransac\\Entities\\Entity -->
<g id="edge20" class="edge"><title>\\EasyTransac\\Entities\\PaymentPageInfos&#45;&gt;\\EasyTransac\\Entities\\Entity</title>
<path fill="none" stroke="black" d="M241.757,-1709.76C210.318,-1717.79 172.562,-1727.43 142.826,-1735.02"/>
<polygon fill="none" stroke="black" points="141.894,-1731.65 133.07,-1737.51 143.625,-1738.43 141.894,-1731.65"/>
</g>
<!-- \\EasyTransac\\Entities\\User -->
<g id="node13" class="node"><title>\\EasyTransac\\Entities\\User</title>
<polygon fill="none" stroke="black" points="331.5,-1658 277.5,-1658 277.5,-1622 331.5,-1622 331.5,-1658"/>
<text text-anchor="middle" x="304.5" y="-1637.2" font-family="Courier,monospace" font-size="11.00">User</text>
</g>
<!-- \\EasyTransac\\Entities\\User&#45;&gt;\\EasyTransac\\Entities\\Entity -->
<g id="edge21" class="edge"><title>\\EasyTransac\\Entities\\User&#45;&gt;\\EasyTransac\\Entities\\Entity</title>
<path fill="none" stroke="black" d="M277.198,-1646.99C260.925,-1651.73 239.813,-1658.65 222,-1667 187.542,-1683.16 150.979,-1706.57 125.436,-1724.07"/>
<polygon fill="none" stroke="black" points="123.111,-1721.42 116.882,-1729.99 127.096,-1727.18 123.111,-1721.42"/>
</g>
<!-- \\EasyTransac\\Entities\\Refund -->
<g id="node14" class="node"><title>\\EasyTransac\\Entities\\Refund</title>
<polygon fill="none" stroke="black" points="333,-1604 276,-1604 276,-1568 333,-1568 333,-1604"/>
<text text-anchor="middle" x="304.5" y="-1583.2" font-family="Courier,monospace" font-size="11.00">Refund</text>
</g>
<!-- \\EasyTransac\\Entities\\Refund&#45;&gt;\\EasyTransac\\Entities\\Entity -->
<g id="edge23" class="edge"><title>\\EasyTransac\\Entities\\Refund&#45;&gt;\\EasyTransac\\Entities\\Entity</title>
<path fill="none" stroke="black" d="M276,-1591.58C259.476,-1595.77 238.522,-1602.59 222,-1613 175.695,-1642.17 134.122,-1691.28 111.05,-1721.54"/>
<polygon fill="none" stroke="black" points="108.247,-1719.44 105.044,-1729.54 113.846,-1723.64 108.247,-1719.44"/>
</g>
<!-- \\EasyTransac\\Entities\\UserInfos -->
<g id="node15" class="node"><title>\\EasyTransac\\Entities\\UserInfos</title>
<polygon fill="none" stroke="black" points="343,-1550 266,-1550 266,-1514 343,-1514 343,-1550"/>
<text text-anchor="middle" x="304.5" y="-1529.2" font-family="Courier,monospace" font-size="11.00">UserInfos</text>
</g>
<!-- \\EasyTransac\\Entities\\UserInfos&#45;&gt;\\EasyTransac\\Entities\\Entity -->
<g id="edge24" class="edge"><title>\\EasyTransac\\Entities\\UserInfos&#45;&gt;\\EasyTransac\\Entities\\Entity</title>
<path fill="none" stroke="black" d="M265.773,-1539.06C251.084,-1543.13 234.753,-1549.42 222,-1559 164.067,-1602.5 122.824,-1679.62 103.805,-1720.61"/>
<polygon fill="none" stroke="black" points="100.609,-1719.18 99.6621,-1729.73 106.983,-1722.07 100.609,-1719.18"/>
</g>
<!-- \\EasyTransac\\Entities\\DoneTransaction -->
<g id="node16" class="node"><title>\\EasyTransac\\Entities\\DoneTransaction</title>
<polygon fill="none" stroke="black" points="363.5,-1496 245.5,-1496 245.5,-1460 363.5,-1460 363.5,-1496"/>
<text text-anchor="middle" x="304.5" y="-1475.2" font-family="Courier,monospace" font-size="11.00">DoneTransaction</text>
</g>
<!-- \\EasyTransac\\Entities\\DoneTransaction&#45;&gt;\\EasyTransac\\Entities\\Entity -->
<g id="edge25" class="edge"><title>\\EasyTransac\\Entities\\DoneTransaction&#45;&gt;\\EasyTransac\\Entities\\Entity</title>
<path fill="none" stroke="black" d="M245.364,-1491.12C236.953,-1494.7 228.842,-1499.24 222,-1505 152.29,-1563.68 114.351,-1669.55 99.4932,-1719.91"/>
<polygon fill="none" stroke="black" points="96.0558,-1719.2 96.6699,-1729.78 102.786,-1721.12 96.0558,-1719.2"/>
</g>
<!-- \\EasyTransac\\Entities\\PaymentStatus -->
<g id="node17" class="node"><title>\\EasyTransac\\Entities\\PaymentStatus</title>
<polygon fill="none" stroke="black" points="356.5,-1442 252.5,-1442 252.5,-1406 356.5,-1406 356.5,-1442"/>
<text text-anchor="middle" x="304.5" y="-1421.2" font-family="Courier,monospace" font-size="11.00">PaymentStatus</text>
</g>
<!-- \\EasyTransac\\Entities\\PaymentStatus&#45;&gt;\\EasyTransac\\Entities\\Entity -->
<g id="edge30" class="edge"><title>\\EasyTransac\\Entities\\PaymentStatus&#45;&gt;\\EasyTransac\\Entities\\Entity</title>
<path fill="none" stroke="black" d="M252.126,-1433.8C241.236,-1437.75 230.483,-1443.27 222,-1451 140.149,-1525.6 107.323,-1660.97 96.5137,-1719.63"/>
<polygon fill="none" stroke="black" points="93.0351,-1719.2 94.7447,-1729.66 99.9287,-1720.42 93.0351,-1719.2"/>
</g>
<!-- \\EasyTransac\\Entities\\CreditCardsList -->
<g id="node18" class="node"><title>\\EasyTransac\\Entities\\CreditCardsList</title>
<polygon fill="none" stroke="black" points="363.5,-1388 245.5,-1388 245.5,-1352 363.5,-1352 363.5,-1388"/>
<text text-anchor="middle" x="304.5" y="-1367.2" font-family="Courier,monospace" font-size="11.00">CreditCardsList</text>
</g>
<!-- \\EasyTransac\\Entities\\CreditCardsList&#45;&gt;\\EasyTransac\\Entities\\Entity -->
<g id="edge31" class="edge"><title>\\EasyTransac\\Entities\\CreditCardsList&#45;&gt;\\EasyTransac\\Entities\\Entity</title>
<path fill="none" stroke="black" d="M245.478,-1381.96C236.855,-1385.69 228.647,-1390.58 222,-1397 127.689,-1488.08 101.287,-1653.63 94.3332,-1719.68"/>
<polygon fill="none" stroke="black" points="90.8378,-1719.46 93.3442,-1729.76 97.8043,-1720.15 90.8378,-1719.46"/>
</g>
<!-- \\EasyTransac\\Entities\\Customer -->
<g id="node19" class="node"><title>\\EasyTransac\\Entities\\Customer</title>
<polygon fill="none" stroke="black" points="340,-1334 269,-1334 269,-1298 340,-1298 340,-1334"/>
<text text-anchor="middle" x="304.5" y="-1313.2" font-family="Courier,monospace" font-size="11.00">Customer</text>
</g>
<!-- \\EasyTransac\\Entities\\Customer&#45;&gt;\\EasyTransac\\Entities\\Entity -->
<g id="edge32" class="edge"><title>\\EasyTransac\\Entities\\Customer&#45;&gt;\\EasyTransac\\Entities\\Entity</title>
<path fill="none" stroke="black" d="M268.776,-1320.19C252.662,-1323.79 234.379,-1330.51 222,-1343 115.219,-1450.78 96.101,-1646.42 92.7143,-1719.47"/>
<polygon fill="none" stroke="black" points="89.2067,-1719.6 92.3073,-1729.73 96.2012,-1719.87 89.2067,-1719.6"/>
</g>
<!-- \\EasyTransac\\Entities\\DebitTransaction -->
<g id="node20" class="node"><title>\\EasyTransac\\Entities\\DebitTransaction</title>
<polygon fill="none" stroke="black" points="367,-1280 242,-1280 242,-1244 367,-1244 367,-1280"/>
<text text-anchor="middle" x="304.5" y="-1259.2" font-family="Courier,monospace" font-size="11.00">DebitTransaction</text>
</g>
<!-- \\EasyTransac\\Entities\\DebitTransaction&#45;&gt;\\EasyTransac\\Entities\\Entity -->
<g id="edge33" class="edge"><title>\\EasyTransac\\Entities\\DebitTransaction&#45;&gt;\\EasyTransac\\Entities\\Entity</title>
<path fill="none" stroke="black" d="M241.744,-1275.04C234.409,-1278.62 227.565,-1283.18 222,-1289 102.499,-1413.87 91.44,-1640.17 91.4343,-1719.55"/>
<polygon fill="none" stroke="black" points="87.9355,-1719.78 91.4968,-1729.75 94.9354,-1719.73 87.9355,-1719.78"/>
</g>
<!-- \\EasyTransac\\Requests\\FindUser -->
<g id="node21" class="node"><title>\\EasyTransac\\Requests\\FindUser</title>
<polygon fill="none" stroke="black" points="340,-1200 269,-1200 269,-1164 340,-1164 340,-1200"/>
<text text-anchor="middle" x="304.5" y="-1179.2" font-family="Courier,monospace" font-size="11.00">FindUser</text>
</g>
<!-- \\EasyTransac\\Requests\\Request -->
<g id="node25" class="node"><title>\\EasyTransac\\Requests\\Request</title>
<polygon fill="none" stroke="black" points="133,-903 49,-903 49,-867 133,-867 133,-903"/>
<text text-anchor="start" x="57" y="-888.2" font-family="Courier,monospace" font-size="11.00">«abstract»</text>
<text text-anchor="start" x="67" y="-876.2" font-family="Courier,monospace" font-size="11.00">Request</text>
</g>
<!-- \\EasyTransac\\Requests\\FindUser&#45;&gt;\\EasyTransac\\Requests\\Request -->
<g id="edge2" class="edge"><title>\\EasyTransac\\Requests\\FindUser&#45;&gt;\\EasyTransac\\Requests\\Request</title>
<path fill="none" stroke="black" d="M268.689,-1176.85C252.939,-1173.03 234.988,-1166.41 222,-1155 146.162,-1088.35 110.599,-967.595 97.8292,-913.063"/>
<polygon fill="none" stroke="black" points="101.191,-912.059 95.574,-903.075 94.3625,-913.601 101.191,-912.059"/>
</g>
<!-- \\EasyTransac\\Requests\\PaymentRefund -->
<g id="node22" class="node"><title>\\EasyTransac\\Requests\\PaymentRefund</title>
<polygon fill="none" stroke="black" points="356.5,-1146 252.5,-1146 252.5,-1110 356.5,-1110 356.5,-1146"/>
<text text-anchor="middle" x="304.5" y="-1125.2" font-family="Courier,monospace" font-size="11.00">PaymentRefund</text>
</g>
<!-- \\EasyTransac\\Requests\\PaymentRefund&#45;&gt;\\EasyTransac\\Requests\\Request -->
<g id="edge3" class="edge"><title>\\EasyTransac\\Requests\\PaymentRefund&#45;&gt;\\EasyTransac\\Requests\\Request</title>
<path fill="none" stroke="black" d="M252.407,-1117.22C241.625,-1113.33 230.848,-1108.07 222,-1101 158.12,-1049.93 118.231,-958.324 101.345,-912.575"/>
<polygon fill="none" stroke="black" points="104.586,-911.244 97.9085,-903.019 97.9995,-913.613 104.586,-911.244"/>
</g>
<!-- \\EasyTransac\\Requests\\AddUser -->
<g id="node23" class="node"><title>\\EasyTransac\\Requests\\AddUser</title>
<polygon fill="none" stroke="black" points="336.5,-1092 272.5,-1092 272.5,-1056 336.5,-1056 336.5,-1092"/>
<text text-anchor="middle" x="304.5" y="-1071.2" font-family="Courier,monospace" font-size="11.00">AddUser</text>
</g>
<!-- \\EasyTransac\\Requests\\AddUser&#45;&gt;\\EasyTransac\\Requests\\Request -->
<g id="edge5" class="edge"><title>\\EasyTransac\\Requests\\AddUser&#45;&gt;\\EasyTransac\\Requests\\Request</title>
<path fill="none" stroke="black" d="M272.162,-1068.08C256.144,-1063.99 236.934,-1057.38 222,-1047 169.94,-1010.83 128.078,-947.945 106.957,-912.091"/>
<polygon fill="none" stroke="black" points="109.832,-910.073 101.799,-903.165 103.772,-913.575 109.832,-910.073"/>
</g>
<!-- \\EasyTransac\\Requests\\CreditCardsList -->
<g id="node24" class="node"><title>\\EasyTransac\\Requests\\CreditCardsList</title>
<polygon fill="none" stroke="black" points="363.5,-1038 245.5,-1038 245.5,-1002 363.5,-1002 363.5,-1038"/>
<text text-anchor="middle" x="304.5" y="-1017.2" font-family="Courier,monospace" font-size="11.00">CreditCardsList</text>
</g>
<!-- \\EasyTransac\\Requests\\CreditCardsList&#45;&gt;\\EasyTransac\\Requests\\Request -->
<g id="edge8" class="edge"><title>\\EasyTransac\\Requests\\CreditCardsList&#45;&gt;\\EasyTransac\\Requests\\Request</title>
<path fill="none" stroke="black" d="M245.358,-1003.73C237.304,-1000.62 229.299,-997.05 222,-993 181.31,-970.423 141.143,-934.37 116.467,-910.203"/>
<polygon fill="none" stroke="black" points="118.886,-907.672 109.323,-903.112 113.955,-912.641 118.886,-907.672"/>
</g>
<!-- \\EasyTransac\\Requests\\AddCreditCard -->
<g id="node26" class="node"><title>\\EasyTransac\\Requests\\AddCreditCard</title>
<polygon fill="none" stroke="black" points="356.5,-984 252.5,-984 252.5,-948 356.5,-948 356.5,-984"/>
<text text-anchor="middle" x="304.5" y="-963.2" font-family="Courier,monospace" font-size="11.00">AddCreditCard</text>
</g>
<!-- \\EasyTransac\\Requests\\AddCreditCard&#45;&gt;\\EasyTransac\\Requests\\Request -->
<g id="edge17" class="edge"><title>\\EasyTransac\\Requests\\AddCreditCard&#45;&gt;\\EasyTransac\\Requests\\Request</title>
<path fill="none" stroke="black" d="M252.432,-949.724C242.3,-946.314 231.777,-942.644 222,-939 195.517,-929.128 166.431,-917.155 142.498,-906.994"/>
<polygon fill="none" stroke="black" points="143.83,-903.757 133.258,-903.053 141.083,-910.196 143.83,-903.757"/>
</g>
<!-- \\EasyTransac\\Requests\\DirectPayment -->
<g id="node27" class="node"><title>\\EasyTransac\\Requests\\DirectPayment</title>
<polygon fill="none" stroke="black" points="356.5,-930 252.5,-930 252.5,-894 356.5,-894 356.5,-930"/>
<text text-anchor="middle" x="304.5" y="-909.2" font-family="Courier,monospace" font-size="11.00">DirectPayment</text>
</g>
<!-- \\EasyTransac\\Requests\\DirectPayment&#45;&gt;\\EasyTransac\\Requests\\Request -->
<g id="edge18" class="edge"><title>\\EasyTransac\\Requests\\DirectPayment&#45;&gt;\\EasyTransac\\Requests\\Request</title>
<path fill="none" stroke="black" d="M252.302,-905.464C219.175,-901.235 176.213,-895.751 143.104,-891.524"/>
<polygon fill="none" stroke="black" points="143.53,-888.05 133.167,-890.255 142.644,-894.994 143.53,-888.05"/>
</g>
<!-- \\EasyTransac\\Requests\\PaymentStatus -->
<g id="node28" class="node"><title>\\EasyTransac\\Requests\\PaymentStatus</title>
<polygon fill="none" stroke="black" points="356.5,-876 252.5,-876 252.5,-840 356.5,-840 356.5,-876"/>
<text text-anchor="middle" x="304.5" y="-855.2" font-family="Courier,monospace" font-size="11.00">PaymentStatus</text>
</g>
<!-- \\EasyTransac\\Requests\\PaymentStatus&#45;&gt;\\EasyTransac\\Requests\\Request -->
<g id="edge19" class="edge"><title>\\EasyTransac\\Requests\\PaymentStatus&#45;&gt;\\EasyTransac\\Requests\\Request</title>
<path fill="none" stroke="black" d="M252.302,-864.536C219.175,-868.765 176.213,-874.249 143.104,-878.476"/>
<polygon fill="none" stroke="black" points="142.644,-875.006 133.167,-879.745 143.53,-881.95 142.644,-875.006"/>
</g>
<!-- \\EasyTransac\\Requests\\UpdateUser -->
<g id="node29" class="node"><title>\\EasyTransac\\Requests\\UpdateUser</title>
<polygon fill="none" stroke="black" points="346.5,-822 262.5,-822 262.5,-786 346.5,-786 346.5,-822"/>
<text text-anchor="middle" x="304.5" y="-801.2" font-family="Courier,monospace" font-size="11.00">UpdateUser</text>
</g>
<!-- \\EasyTransac\\Requests\\UpdateUser&#45;&gt;\\EasyTransac\\Requests\\Request -->
<g id="edge22" class="edge"><title>\\EasyTransac\\Requests\\UpdateUser&#45;&gt;\\EasyTransac\\Requests\\Request</title>
<path fill="none" stroke="black" d="M262.25,-817.01C249.297,-821.271 234.989,-826.158 222,-831 195.517,-840.872 166.431,-852.845 142.498,-863.006"/>
<polygon fill="none" stroke="black" points="141.083,-859.804 133.258,-866.947 143.83,-866.243 141.083,-859.804"/>
</g>
<!-- \\EasyTransac\\Requests\\PaymentPage -->
<g id="node30" class="node"><title>\\EasyTransac\\Requests\\PaymentPage</title>
<polygon fill="none" stroke="black" points="350,-768 259,-768 259,-732 350,-732 350,-768"/>
<text text-anchor="middle" x="304.5" y="-747.2" font-family="Courier,monospace" font-size="11.00">PaymentPage</text>
</g>
<!-- \\EasyTransac\\Requests\\PaymentPage&#45;&gt;\\EasyTransac\\Requests\\Request -->
<g id="edge26" class="edge"><title>\\EasyTransac\\Requests\\PaymentPage&#45;&gt;\\EasyTransac\\Requests\\Request</title>
<path fill="none" stroke="black" d="M258.666,-761.539C246.384,-765.575 233.339,-770.708 222,-777 181.31,-799.577 141.143,-835.63 116.467,-859.797"/>
<polygon fill="none" stroke="black" points="113.955,-857.359 109.323,-866.888 118.886,-862.328 113.955,-857.359"/>
</g>
<!-- \\EasyTransac\\Requests\\OneClickPayment -->
<g id="node31" class="node"><title>\\EasyTransac\\Requests\\OneClickPayment</title>
<polygon fill="none" stroke="black" points="363.5,-714 245.5,-714 245.5,-678 363.5,-678 363.5,-714"/>
<text text-anchor="middle" x="304.5" y="-693.2" font-family="Courier,monospace" font-size="11.00">OneClickPayment</text>
</g>
<!-- \\EasyTransac\\Requests\\OneClickPayment&#45;&gt;\\EasyTransac\\Requests\\Request -->
<g id="edge27" class="edge"><title>\\EasyTransac\\Requests\\OneClickPayment&#45;&gt;\\EasyTransac\\Requests\\Request</title>
<path fill="none" stroke="black" d="M245.396,-710.618C237.166,-713.983 229.1,-718.067 222,-723 169.94,-759.171 128.078,-822.055 106.957,-857.909"/>
<polygon fill="none" stroke="black" points="103.772,-856.425 101.799,-866.835 109.832,-859.927 103.772,-856.425"/>
</g>
<!-- \\EasyTransac\\Requests\\Cancellation -->
<g id="node32" class="node"><title>\\EasyTransac\\Requests\\Cancellation</title>
<polygon fill="none" stroke="black" points="353.5,-660 255.5,-660 255.5,-624 353.5,-624 353.5,-660"/>
<text text-anchor="middle" x="304.5" y="-639.2" font-family="Courier,monospace" font-size="11.00">Cancellation</text>
</g>
<!-- \\EasyTransac\\Requests\\Cancellation&#45;&gt;\\EasyTransac\\Requests\\Request -->
<g id="edge28" class="edge"><title>\\EasyTransac\\Requests\\Cancellation&#45;&gt;\\EasyTransac\\Requests\\Request</title>
<path fill="none" stroke="black" d="M255.384,-651.741C243.627,-655.72 231.663,-661.274 222,-669 158.12,-720.075 118.231,-811.676 101.345,-857.425"/>
<polygon fill="none" stroke="black" points="97.9995,-856.387 97.9085,-866.981 104.586,-858.756 97.9995,-856.387"/>
</g>
<!-- \\EasyTransac\\Requests\\DebitPayment -->
<g id="node33" class="node"><title>\\EasyTransac\\Requests\\DebitPayment</title>
<polygon fill="none" stroke="black" points="353.5,-606 255.5,-606 255.5,-570 353.5,-570 353.5,-606"/>
<text text-anchor="middle" x="304.5" y="-585.2" font-family="Courier,monospace" font-size="11.00">DebitPayment</text>
</g>
<!-- \\EasyTransac\\Requests\\DebitPayment&#45;&gt;\\EasyTransac\\Requests\\Request -->
<g id="edge34" class="edge"><title>\\EasyTransac\\Requests\\DebitPayment&#45;&gt;\\EasyTransac\\Requests\\Request</title>
<path fill="none" stroke="black" d="M255.302,-596.994C243.413,-600.987 231.405,-606.735 222,-615 146.162,-681.648 110.599,-802.405 97.8292,-856.937"/>
<polygon fill="none" stroke="black" points="94.3625,-856.399 95.574,-866.925 101.191,-857.941 94.3625,-856.399"/>
</g>
<!-- \\EasyTransac\\Core\\FgcCaller -->
<g id="node34" class="node"><title>\\EasyTransac\\Core\\FgcCaller</title>
<polygon fill="none" stroke="black" points="343,-68 266,-68 266,-32 343,-32 343,-68"/>
<text text-anchor="middle" x="304.5" y="-47.2" font-family="Courier,monospace" font-size="11.00">FgcCaller</text>
</g>
<!-- \\EasyTransac\\Core\\ICaller -->
<g id="node43" class="node"><title>\\EasyTransac\\Core\\ICaller</title>
<polygon fill="none" stroke="black" points="123,-176 59,-176 59,-140 123,-140 123,-176"/>
<text text-anchor="middle" x="91" y="-155.2" font-family="Courier,monospace" font-size="11.00">ICaller</text>
</g>
<!-- \\EasyTransac\\Core\\FgcCaller&#45;&gt;\\EasyTransac\\Core\\ICaller -->
<g id="edge6" class="edge"><title>\\EasyTransac\\Core\\FgcCaller&#45;&gt;\\EasyTransac\\Core\\ICaller</title>
<path fill="none" stroke="black" stroke-dasharray="1,5" d="M265.858,-60.4188C251.808,-64.8366 235.9,-70.4807 222,-77 187.542,-93.1616 150.979,-116.57 125.436,-134.071"/>
<polygon fill="none" stroke="black" points="123.111,-131.423 116.882,-139.993 127.096,-137.178 123.111,-131.423"/>
</g>
<!-- \\EasyTransac\\Core\\PaymentNotification -->
<g id="node35" class="node"><title>\\EasyTransac\\Core\\PaymentNotification</title>
<polygon fill="none" stroke="black" points="377,-392 232,-392 232,-356 377,-356 377,-392"/>
<text text-anchor="middle" x="304.5" y="-371.2" font-family="Courier,monospace" font-size="11.00">PaymentNotification</text>
</g>
<!-- \\EasyTransac\\Core\\Logger -->
<g id="node36" class="node"><title>\\EasyTransac\\Core\\Logger</title>
<polygon fill="none" stroke="black" points="333,-338 276,-338 276,-302 333,-302 333,-338"/>
<text text-anchor="middle" x="304.5" y="-317.2" font-family="Courier,monospace" font-size="11.00">Logger</text>
</g>
<!-- \\EasyTransac\\Core\\LimitedModifier -->
<g id="node37" class="node"><title>\\EasyTransac\\Core\\LimitedModifier</title>
<polygon fill="none" stroke="black" points="363.5,-446 245.5,-446 245.5,-410 363.5,-410 363.5,-446"/>
<text text-anchor="middle" x="304.5" y="-425.2" font-family="Courier,monospace" font-size="11.00">LimitedModifier</text>
</g>
<!-- \\EasyTransac\\Core\\ICallerModifier -->
<g id="node42" class="node"><title>\\EasyTransac\\Core\\ICallerModifier</title>
<polygon fill="none" stroke="black" points="150,-446 32,-446 32,-410 150,-410 150,-446"/>
<text text-anchor="middle" x="91" y="-425.2" font-family="Courier,monospace" font-size="11.00">ICallerModifier</text>
</g>
<!-- \\EasyTransac\\Core\\LimitedModifier&#45;&gt;\\EasyTransac\\Core\\ICallerModifier -->
<g id="edge13" class="edge"><title>\\EasyTransac\\Core\\LimitedModifier&#45;&gt;\\EasyTransac\\Core\\ICallerModifier</title>
<path fill="none" stroke="black" stroke-dasharray="1,5" d="M245.427,-428C219.185,-428 187.99,-428 160.602,-428"/>
<polygon fill="none" stroke="black" points="160.311,-424.5 150.31,-428 160.31,-431.5 160.311,-424.5"/>
</g>
<!-- \\EasyTransac\\Core\\Services -->
<g id="node38" class="node"><title>\\EasyTransac\\Core\\Services</title>
<polygon fill="none" stroke="black" points="340,-230 269,-230 269,-194 340,-194 340,-230"/>
<text text-anchor="middle" x="304.5" y="-209.2" font-family="Courier,monospace" font-size="11.00">Services</text>
</g>
<!-- \\EasyTransac\\Core\\Security -->
<g id="node39" class="node"><title>\\EasyTransac\\Core\\Security</title>
<polygon fill="none" stroke="black" points="340,-176 269,-176 269,-140 340,-140 340,-176"/>
<text text-anchor="middle" x="304.5" y="-155.2" font-family="Courier,monospace" font-size="11.00">Security</text>
</g>
<!-- \\EasyTransac\\Core\\CommentParser -->
<g id="node40" class="node"><title>\\EasyTransac\\Core\\CommentParser</title>
<polygon fill="none" stroke="black" points="356.5,-122 252.5,-122 252.5,-86 356.5,-86 356.5,-122"/>
<text text-anchor="middle" x="304.5" y="-101.2" font-family="Courier,monospace" font-size="11.00">CommentParser</text>
</g>
<!-- \\EasyTransac\\Core\\CurlCaller -->
<g id="node41" class="node"><title>\\EasyTransac\\Core\\CurlCaller</title>
<polygon fill="none" stroke="black" points="346.5,-284 262.5,-284 262.5,-248 346.5,-248 346.5,-284"/>
<text text-anchor="middle" x="304.5" y="-263.2" font-family="Courier,monospace" font-size="11.00">CurlCaller</text>
</g>
<!-- \\EasyTransac\\Core\\CurlCaller&#45;&gt;\\EasyTransac\\Core\\ICaller -->
<g id="edge29" class="edge"><title>\\EasyTransac\\Core\\CurlCaller&#45;&gt;\\EasyTransac\\Core\\ICaller</title>
<path fill="none" stroke="black" stroke-dasharray="1,5" d="M262.135,-254.395C249.043,-250.17 234.685,-244.95 222,-239 187.542,-222.838 150.979,-199.43 125.436,-181.929"/>
<polygon fill="none" stroke="black" points="127.096,-178.822 116.882,-176.007 123.111,-184.577 127.096,-178.822"/>
</g>
<!-- \\EasyTransac\\Responses\\StandardResponse -->
<g id="node44" class="node"><title>\\EasyTransac\\Responses\\StandardResponse</title>
<polygon fill="none" stroke="black" points="367,-526 242,-526 242,-490 367,-490 367,-526"/>
<text text-anchor="middle" x="304.5" y="-505.2" font-family="Courier,monospace" font-size="11.00">StandardResponse</text>
</g>
</g>
</svg>
